<?xml version="1.0" encoding="UTF-8"?>
<svg xmlns="http://www.w3.org/2000/svg" xmlns:xlink="http://www.w3.org/1999/xlink" width="91px" height="75px" viewBox="0 0 90 75" version="1.1">
<defs>
<linearGradient id="linear0" gradientUnits="userSpaceOnUse" x1="-71.433197" y1="311.645111" x2="267.252289" y2="311.645111" gradientTransform="matrix(0.206897,0,0,0.208333,0,0)">
<stop offset="0" style="stop-color:rgb(100%,100%,100%);stop-opacity:1;"/>
<stop offset="1" style="stop-color:rgb(0%,25.098039%,38.431373%);stop-opacity:1;"/>
</linearGradient>
<linearGradient id="linear1" gradientUnits="userSpaceOnUse" x1="-71.433197" y1="323.067413" x2="267.252289" y2="323.067413" gradientTransform="matrix(0.206897,0,0,0.208333,0,0)">
<stop offset="0" style="stop-color:rgb(100%,100%,100%);stop-opacity:1;"/>
<stop offset="1" style="stop-color:rgb(0%,25.098039%,38.431373%);stop-opacity:1;"/>
</linearGradient>
<linearGradient id="linear2" gradientUnits="userSpaceOnUse" x1="-71.433197" y1="283.068512" x2="267.252289" y2="283.068512" gradientTransform="matrix(0.206897,0,0,0.208333,0,0)">
<stop offset="0" style="stop-color:rgb(100%,100%,100%);stop-opacity:1;"/>
<stop offset="1" style="stop-color:rgb(0%,25.098039%,38.431373%);stop-opacity:1;"/>
</linearGradient>
<linearGradient id="linear3" gradientUnits="userSpaceOnUse" x1="-71.433197" y1="259.761597" x2="267.252289" y2="259.761597" gradientTransform="matrix(0.206897,0,0,0.208333,0,0)">
<stop offset="0" style="stop-color:rgb(100%,100%,100%);stop-opacity:1;"/>
<stop offset="1" style="stop-color:rgb(0%,25.098039%,38.431373%);stop-opacity:1;"/>
</linearGradient>
<linearGradient id="linear4" gradientUnits="userSpaceOnUse" x1="-71.433197" y1="239.183807" x2="267.252289" y2="239.183807" gradientTransform="matrix(0.206897,0,0,0.208333,0,0)">
<stop offset="0" style="stop-color:rgb(100%,100%,100%);stop-opacity:1;"/>
<stop offset="1" style="stop-color:rgb(0%,25.098039%,38.431373%);stop-opacity:1;"/>
</linearGradient>
<linearGradient id="linear5" gradientUnits="userSpaceOnUse" x1="-71.433197" y1="301.358704" x2="267.252289" y2="301.358704" gradientTransform="matrix(0.206897,0,0,0.208333,0,0)">
<stop offset="0" style="stop-color:rgb(100%,100%,100%);stop-opacity:1;"/>
<stop offset="1" style="stop-color:rgb(0%,25.098039%,38.431373%);stop-opacity:1;"/>
</linearGradient>
<linearGradient id="linear6" gradientUnits="userSpaceOnUse" x1="-71.433197" y1="321.437988" x2="267.252289" y2="321.437988" gradientTransform="matrix(0.206897,0,0,0.208333,0,0)">
<stop offset="0" style="stop-color:rgb(100%,100%,100%);stop-opacity:1;"/>
<stop offset="1" style="stop-color:rgb(0%,25.098039%,38.431373%);stop-opacity:1;"/>
</linearGradient>
<linearGradient id="linear7" gradientUnits="userSpaceOnUse" x1="-71.433197" y1="227.772903" x2="267.252289" y2="227.772903" gradientTransform="matrix(0.206897,0,0,0.208333,0,0)">
<stop offset="0" style="stop-color:rgb(100%,100%,100%);stop-opacity:1;"/>
<stop offset="1" style="stop-color:rgb(0%,25.098039%,38.431373%);stop-opacity:1;"/>
</linearGradient>
<linearGradient id="linear8" gradientUnits="userSpaceOnUse" x1="-71.433197" y1="77.563599" x2="267.252289" y2="77.563599" gradientTransform="matrix(0.206897,0,0,0.208333,0,0)">
<stop offset="0" style="stop-color:rgb(100%,100%,100%);stop-opacity:1;"/>
<stop offset="1" style="stop-color:rgb(0%,25.098039%,38.431373%);stop-opacity:1;"/>
</linearGradient>
<linearGradient id="linear9" gradientUnits="userSpaceOnUse" x1="-71.433197" y1="88.881699" x2="267.252289" y2="88.881699" gradientTransform="matrix(0.206897,0,0,0.208333,0,0)">
<stop offset="0" style="stop-color:rgb(100%,100%,100%);stop-opacity:1;"/>
<stop offset="1" style="stop-color:rgb(0%,25.098039%,38.431373%);stop-opacity:1;"/>
</linearGradient>
<linearGradient id="linear10" gradientUnits="userSpaceOnUse" x1="-71.433197" y1="100.621498" x2="267.252289" y2="100.621498" gradientTransform="matrix(0.206897,0,0,0.208333,0,0)">
<stop offset="0" style="stop-color:rgb(100%,100%,100%);stop-opacity:1;"/>
<stop offset="1" style="stop-color:rgb(0%,25.098039%,38.431373%);stop-opacity:1;"/>
</linearGradient>
<linearGradient id="linear11" gradientUnits="userSpaceOnUse" x1="-71.433197" y1="44.326599" x2="267.252289" y2="44.326599" gradientTransform="matrix(0.206897,0,0,0.208333,0,0)">
<stop offset="0" style="stop-color:rgb(100%,100%,100%);stop-opacity:1;"/>
<stop offset="1" style="stop-color:rgb(0%,25.098039%,38.431373%);stop-opacity:1;"/>
</linearGradient>
<linearGradient id="linear12" gradientUnits="userSpaceOnUse" x1="-71.433197" y1="228.643005" x2="267.252289" y2="228.643005" gradientTransform="matrix(0.206897,0,0,0.208333,0,0)">
<stop offset="0" style="stop-color:rgb(100%,100%,100%);stop-opacity:1;"/>
<stop offset="1" style="stop-color:rgb(0%,25.098039%,38.431373%);stop-opacity:1;"/>
</linearGradient>
<linearGradient id="linear13" gradientUnits="userSpaceOnUse" x1="-71.433197" y1="137.594696" x2="267.252289" y2="137.594696" gradientTransform="matrix(0.206897,0,0,0.208333,0,0)">
<stop offset="0" style="stop-color:rgb(100%,100%,100%);stop-opacity:1;"/>
<stop offset="1" style="stop-color:rgb(0%,25.098039%,38.431373%);stop-opacity:1;"/>
</linearGradient>
<linearGradient id="linear14" gradientUnits="userSpaceOnUse" x1="-71.433197" y1="132.791901" x2="267.252289" y2="132.791901" gradientTransform="matrix(0.206897,0,0,0.208333,0,0)">
<stop offset="0" style="stop-color:rgb(100%,100%,100%);stop-opacity:1;"/>
<stop offset="1" style="stop-color:rgb(0%,25.098039%,38.431373%);stop-opacity:1;"/>
</linearGradient>
<linearGradient id="linear15" gradientUnits="userSpaceOnUse" x1="-71.433197" y1="19.0497" x2="267.252289" y2="19.0497" gradientTransform="matrix(0.206897,0,0,0.208333,0,0)">
<stop offset="0" style="stop-color:rgb(100%,100%,100%);stop-opacity:1;"/>
<stop offset="1" style="stop-color:rgb(0%,25.098039%,38.431373%);stop-opacity:1;"/>
</linearGradient>
<linearGradient id="linear16" gradientUnits="userSpaceOnUse" x1="-71.433197" y1="99.155998" x2="267.252289" y2="99.155998" gradientTransform="matrix(0.206897,0,0,0.208333,0,0)">
<stop offset="0" style="stop-color:rgb(100%,100%,100%);stop-opacity:1;"/>
<stop offset="1" style="stop-color:rgb(0%,25.098039%,38.431373%);stop-opacity:1;"/>
</linearGradient>
<linearGradient id="linear17" gradientUnits="userSpaceOnUse" x1="-71.433197" y1="132.9814" x2="267.252289" y2="132.9814" gradientTransform="matrix(0.206897,0,0,0.208333,0,0)">
<stop offset="0" style="stop-color:rgb(100%,100%,100%);stop-opacity:1;"/>
<stop offset="1" style="stop-color:rgb(0%,25.098039%,38.431373%);stop-opacity:1;"/>
</linearGradient>
<linearGradient id="linear18" gradientUnits="userSpaceOnUse" x1="-71.433197" y1="28.693001" x2="267.252289" y2="28.693001" gradientTransform="matrix(0.206897,0,0,0.208333,0,0)">
<stop offset="0" style="stop-color:rgb(100%,100%,100%);stop-opacity:1;"/>
<stop offset="1" style="stop-color:rgb(0%,25.098039%,38.431373%);stop-opacity:1;"/>
</linearGradient>
<linearGradient id="linear19" gradientUnits="userSpaceOnUse" x1="-71.433197" y1="38.338501" x2="267.252289" y2="38.338501" gradientTransform="matrix(0.206897,0,0,0.208333,0,0)">
<stop offset="0" style="stop-color:rgb(100%,100%,100%);stop-opacity:1;"/>
<stop offset="1" style="stop-color:rgb(0%,25.098039%,38.431373%);stop-opacity:1;"/>
</linearGradient>
<linearGradient id="linear20" gradientUnits="userSpaceOnUse" x1="-71.433197" y1="74.732399" x2="267.252289" y2="74.732399" gradientTransform="matrix(0.206897,0,0,0.208333,0,0)">
<stop offset="0" style="stop-color:rgb(100%,100%,100%);stop-opacity:1;"/>
<stop offset="1" style="stop-color:rgb(0%,25.098039%,38.431373%);stop-opacity:1;"/>
</linearGradient>
<linearGradient id="linear21" gradientUnits="userSpaceOnUse" x1="-71.433197" y1="222.8918" x2="267.252289" y2="222.8918" gradientTransform="matrix(0.206897,0,0,0.208333,0,0)">
<stop offset="0" style="stop-color:rgb(100%,100%,100%);stop-opacity:1;"/>
<stop offset="1" style="stop-color:rgb(0%,25.098039%,38.431373%);stop-opacity:1;"/>
</linearGradient>
<linearGradient id="linear22" gradientUnits="userSpaceOnUse" x1="-71.433197" y1="33.513802" x2="267.252289" y2="33.513802" gradientTransform="matrix(0.206897,0,0,0.208333,0,0)">
<stop offset="0" style="stop-color:rgb(100%,100%,100%);stop-opacity:1;"/>
<stop offset="1" style="stop-color:rgb(0%,25.098039%,38.431373%);stop-opacity:1;"/>
</linearGradient>
<linearGradient id="linear23" gradientUnits="userSpaceOnUse" x1="-71.433197" y1="40.833302" x2="267.252289" y2="40.833302" gradientTransform="matrix(0.206897,0,0,0.208333,0,0)">
<stop offset="0" style="stop-color:rgb(100%,100%,100%);stop-opacity:1;"/>
<stop offset="1" style="stop-color:rgb(0%,25.098039%,38.431373%);stop-opacity:1;"/>
</linearGradient>
<linearGradient id="linear24" gradientUnits="userSpaceOnUse" x1="-71.433197" y1="242.998001" x2="267.252289" y2="242.998001" gradientTransform="matrix(0.206897,0,0,0.208333,0,0)">
<stop offset="0" style="stop-color:rgb(100%,100%,100%);stop-opacity:1;"/>
<stop offset="1" style="stop-color:rgb(0%,25.098039%,38.431373%);stop-opacity:1;"/>
</linearGradient>
<linearGradient id="linear25" gradientUnits="userSpaceOnUse" x1="-71.433197" y1="283.2099" x2="267.252289" y2="283.2099" gradientTransform="matrix(0.206897,0,0,0.208333,0,0)">
<stop offset="0" style="stop-color:rgb(100%,100%,100%);stop-opacity:1;"/>
<stop offset="1" style="stop-color:rgb(0%,25.098039%,38.431373%);stop-opacity:1;"/>
</linearGradient>
<linearGradient id="linear26" gradientUnits="userSpaceOnUse" x1="-71.433197" y1="259.695709" x2="267.252289" y2="259.695709" gradientTransform="matrix(0.206897,0,0,0.208333,0,0)">
<stop offset="0" style="stop-color:rgb(100%,100%,100%);stop-opacity:1;"/>
<stop offset="1" style="stop-color:rgb(0%,25.098039%,38.431373%);stop-opacity:1;"/>
</linearGradient>
<linearGradient id="linear27" gradientUnits="userSpaceOnUse" x1="-71.433197" y1="227.430893" x2="267.252289" y2="227.430893" gradientTransform="matrix(0.206897,0,0,0.208333,0,0)">
<stop offset="0" style="stop-color:rgb(100%,100%,100%);stop-opacity:1;"/>
<stop offset="1" style="stop-color:rgb(0%,25.098039%,38.431373%);stop-opacity:1;"/>
</linearGradient>
<linearGradient id="linear28" gradientUnits="userSpaceOnUse" x1="-71.433197" y1="270.773804" x2="267.252289" y2="270.773804" gradientTransform="matrix(0.206897,0,0,0.208333,0,0)">
<stop offset="0" style="stop-color:rgb(100%,100%,100%);stop-opacity:1;"/>
<stop offset="1" style="stop-color:rgb(0%,25.098039%,38.431373%);stop-opacity:1;"/>
</linearGradient>
<linearGradient id="linear29" gradientUnits="userSpaceOnUse" x1="-71.433197" y1="109.697403" x2="267.252289" y2="109.697403" gradientTransform="matrix(0.206897,0,0,0.208333,0,0)">
<stop offset="0" style="stop-color:rgb(100%,100%,100%);stop-opacity:1;"/>
<stop offset="1" style="stop-color:rgb(0%,25.098039%,38.431373%);stop-opacity:1;"/>
</linearGradient>
<linearGradient id="linear30" gradientUnits="userSpaceOnUse" x1="-71.433197" y1="118.9533" x2="267.252289" y2="118.9533" gradientTransform="matrix(0.206897,0,0,0.208333,0,0)">
<stop offset="0" style="stop-color:rgb(100%,100%,100%);stop-opacity:1;"/>
<stop offset="1" style="stop-color:rgb(0%,25.098039%,38.431373%);stop-opacity:1;"/>
</linearGradient>
<linearGradient id="linear31" gradientUnits="userSpaceOnUse" x1="-71.433197" y1="43.867599" x2="267.252289" y2="43.867599" gradientTransform="matrix(0.206897,0,0,0.208333,0,0)">
<stop offset="0" style="stop-color:rgb(100%,100%,100%);stop-opacity:1;"/>
<stop offset="1" style="stop-color:rgb(0%,25.098039%,38.431373%);stop-opacity:1;"/>
</linearGradient>
<linearGradient id="linear32" gradientUnits="userSpaceOnUse" x1="-71.433197" y1="87.848801" x2="267.252289" y2="87.848801" gradientTransform="matrix(0.206897,0,0,0.208333,0,0)">
<stop offset="0" style="stop-color:rgb(100%,100%,100%);stop-opacity:1;"/>
<stop offset="1" style="stop-color:rgb(0%,25.098039%,38.431373%);stop-opacity:1;"/>
</linearGradient>
<linearGradient id="linear33" gradientUnits="userSpaceOnUse" x1="-71.433197" y1="117.5177" x2="267.252289" y2="117.5177" gradientTransform="matrix(0.206897,0,0,0.208333,0,0)">
<stop offset="0" style="stop-color:rgb(100%,100%,100%);stop-opacity:1;"/>
<stop offset="1" style="stop-color:rgb(0%,25.098039%,38.431373%);stop-opacity:1;"/>
</linearGradient>
<linearGradient id="linear34" gradientUnits="userSpaceOnUse" x1="-71.433197" y1="61.863899" x2="267.252289" y2="61.863899" gradientTransform="matrix(0.206897,0,0,0.208333,0,0)">
<stop offset="0" style="stop-color:rgb(100%,100%,100%);stop-opacity:1;"/>
<stop offset="1" style="stop-color:rgb(0%,25.098039%,38.431373%);stop-opacity:1;"/>
</linearGradient>
<linearGradient id="linear35" gradientUnits="userSpaceOnUse" x1="-71.433197" y1="249.564697" x2="267.252289" y2="249.564697" gradientTransform="matrix(0.206897,0,0,0.208333,0,0)">
<stop offset="0" style="stop-color:rgb(100%,100%,100%);stop-opacity:1;"/>
<stop offset="1" style="stop-color:rgb(0%,25.098039%,38.431373%);stop-opacity:1;"/>
</linearGradient>
<linearGradient id="linear36" gradientUnits="userSpaceOnUse" x1="-71.433197" y1="133.355606" x2="267.252289" y2="133.355606" gradientTransform="matrix(0.206897,0,0,0.208333,0,0)">
<stop offset="0" style="stop-color:rgb(100%,100%,100%);stop-opacity:1;"/>
<stop offset="1" style="stop-color:rgb(0%,25.098039%,38.431373%);stop-opacity:1;"/>
</linearGradient>
</defs>
<g id="surface1">
<path style=" stroke:none;fill-rule:nonzero;fill:rgb(46.666667%,5.098039%,16.078432%);fill-opacity:1;" d="M 80.8125 27.5 C 76.46875 11.625 62.046875 -0.0195312 44.917969 -0.0195312 C 27.765625 -0.0195312 13.34375 11.625 9 27.5 L 0.0429688 27.5 L 0.0429688 47.707031 L 9.0625 47.707031 C 13.46875 63.457031 27.847656 75.019531 44.917969 75.019531 C 61.984375 75.019531 76.367188 63.457031 80.773438 47.707031 L 89.875 47.707031 L 89.875 27.5 Z M 88.46875 46.332031 L 79.613281 46.332031 C 79.59375 46.375 79.59375 46.417969 79.574219 46.457031 C 77.132812 55.792969 71.214844 63.605469 62.957031 68.5 C 57.394531 71.792969 51.207031 73.457031 44.957031 73.457031 C 41.917969 73.457031 38.855469 73.0625 35.835938 72.25 C 26.605469 69.792969 18.890625 63.855469 14.089844 55.5 C 12.414062 52.582031 11.171875 49.5 10.367188 46.332031 L 1.40625 46.332031 L 1.40625 28.875 L 10.242188 28.875 C 10.304688 28.605469 10.367188 28.332031 10.449219 28.082031 C 12.890625 18.75 18.808594 10.917969 27.0625 6.042969 C 35.339844 1.167969 44.957031 -0.167969 54.1875 2.269531 C 63.414062 4.730469 71.132812 10.667969 75.929688 19.019531 C 77.730469 22.144531 79.015625 25.4375 79.820312 28.855469 L 88.46875 28.855469 Z M 88.46875 46.332031 "/>
<path style=" stroke:none;fill-rule:nonzero;fill:url(#linear0);" d="M 37.074219 70.75 C 37.40625 70.75 37.738281 70.730469 38.070312 70.625 C 38.628906 70.480469 39.207031 70.207031 39.808594 69.8125 C 40.839844 69.144531 41.875 68.167969 42.992188 66.8125 C 43.902344 65.730469 44.792969 64.457031 45.722656 62.957031 C 45.808594 62.832031 45.890625 62.6875 45.972656 62.5625 L 46.035156 62.457031 C 43.59375 62.019531 41.070312 61.457031 38.542969 60.832031 C 36.394531 60.292969 34.28125 59.707031 32.277344 59.082031 C 32.316406 60.875 32.441406 62.457031 32.667969 63.9375 C 32.9375 65.644531 33.332031 67.019531 33.867188 68.125 C 34.242188 68.917969 34.882812 69.894531 35.8125 70.394531 C 35.980469 70.4375 36.125 70.480469 36.289062 70.519531 C 36.539062 70.625 36.808594 70.6875 37.074219 70.75 Z M 37.074219 70.75 "/>
<path style=" stroke:none;fill-rule:nonzero;fill:url(#linear1);" d="M 62.070312 66.957031 C 64.054688 65.792969 65.898438 64.4375 67.59375 62.917969 C 67.242188 63.0625 66.867188 63.1875 66.433594 63.3125 C 65.296875 63.605469 64.054688 63.769531 62.441406 63.875 C 60.703125 63.957031 58.882812 63.957031 56.875 63.832031 C 56.8125 63.894531 56.773438 63.9375 56.710938 64 C 56.628906 64.105469 56.523438 64.1875 56.441406 64.292969 C 53.460938 67.292969 50.277344 69.457031 46.964844 70.75 C 45.953125 71.144531 44.9375 71.457031 43.902344 71.667969 C 50.191406 71.875 56.460938 70.269531 62.070312 66.957031 Z M 62.070312 66.957031 "/>
<path style=" stroke:none;fill-rule:nonzero;fill:url(#linear2);" d="M 28.71875 67.519531 C 28.074219 66.9375 27.476562 66.3125 26.898438 65.625 C 24.578125 62.875 22.738281 59.292969 21.578125 55.292969 C 21.558594 55.25 21.558594 55.207031 21.539062 55.167969 L 21.515625 55.082031 C 19.367188 54.105469 17.542969 53.125 15.929688 52.105469 C 15 51.5 14.234375 50.957031 13.574219 50.417969 C 14.152344 51.855469 14.835938 53.25 15.621094 54.605469 C 18.785156 60.144531 23.316406 64.5625 28.71875 67.519531 Z M 28.71875 67.519531 "/>
<path style=" stroke:none;fill-rule:nonzero;fill:url(#linear3);" d="M 76.65625 47.832031 C 75.890625 48.1875 75.0625 48.355469 74.441406 48.480469 C 73.136719 48.707031 71.730469 48.832031 69.890625 48.855469 C 68.691406 48.855469 67.46875 48.832031 66.144531 48.75 C 65.421875 50.667969 64.574219 52.519531 63.660156 54.269531 C 64.074219 54.519531 64.449219 54.75 64.78125 54.957031 C 66.144531 55.855469 67.136719 56.605469 67.984375 57.4375 C 68.566406 58 68.957031 58.5 69.269531 59.019531 C 69.539062 59.480469 69.828125 60.167969 69.703125 60.875 C 73.28125 57.0625 75.953125 52.457031 77.523438 47.332031 C 77.253906 47.519531 76.984375 47.6875 76.65625 47.832031 Z M 76.65625 47.832031 "/>
<path style=" stroke:none;fill-rule:nonzero;fill:url(#linear4);" d="M 12.457031 47.042969 C 12.722656 47.480469 13.097656 47.957031 13.613281 48.457031 C 14.398438 49.230469 15.371094 49.980469 16.675781 50.832031 C 17.980469 51.6875 19.425781 52.5 21.082031 53.332031 C 20.566406 51.082031 20.253906 48.75 20.109375 46.355469 L 12.1875 46.355469 C 12.226562 46.480469 12.25 46.605469 12.289062 46.730469 C 12.332031 46.8125 12.394531 46.9375 12.457031 47.042969 Z M 12.457031 47.042969 "/>
<path style=" stroke:none;fill-rule:nonzero;fill:url(#linear5);" d="M 33.308594 68.707031 C 32.710938 67.542969 32.253906 66.105469 31.925781 64.3125 C 31.65625 62.855469 31.488281 61.292969 31.40625 59.480469 C 31.40625 59.332031 31.40625 59.207031 31.386719 59.0625 C 31.386719 58.980469 31.386719 58.917969 31.386719 58.832031 C 28.449219 57.894531 25.757812 56.917969 23.171875 55.832031 C 23.109375 55.8125 23.046875 55.792969 23.007812 55.75 C 22.964844 55.730469 22.902344 55.707031 22.863281 55.6875 C 23.9375 59.3125 25.511719 62.417969 27.515625 64.894531 C 28.695312 66.355469 30 67.582031 31.425781 68.5625 C 31.863281 68.855469 32.316406 69.144531 32.792969 69.394531 C 33.207031 69.5625 33.621094 69.707031 34.054688 69.855469 C 33.785156 69.519531 33.539062 69.144531 33.308594 68.707031 Z M 33.308594 68.707031 "/>
<path style=" stroke:none;fill-rule:nonzero;fill:url(#linear6);" d="M 41.421875 71.355469 C 43.160156 71.25 44.9375 70.875 46.675781 70.207031 C 49.945312 69 53.191406 66.855469 56.070312 64.019531 C 56.132812 63.957031 56.191406 63.894531 56.253906 63.832031 C 56.277344 63.8125 56.277344 63.8125 56.296875 63.792969 C 55.65625 63.75 55.015625 63.6875 54.371094 63.625 C 51.847656 63.375 49.179688 63.019531 46.488281 62.542969 C 45.457031 64.355469 44.421875 65.875 43.367188 67.207031 C 42.226562 68.625 41.152344 69.667969 40.097656 70.394531 C 39.660156 70.6875 39.226562 70.917969 38.8125 71.105469 C 39.351562 71.207031 39.910156 71.292969 40.449219 71.375 C 40.78125 71.375 41.109375 71.375 41.421875 71.355469 Z M 41.421875 71.355469 "/>
<path style=" stroke:none;fill-rule:nonzero;fill:url(#linear7);" d="M 66.992188 46.332031 C 66.765625 47.042969 66.515625 47.75 66.269531 48.4375 C 67.488281 48.519531 68.605469 48.5625 69.703125 48.5625 C 71.542969 48.542969 72.929688 48.4375 74.214844 48.207031 C 75.125 48.042969 75.785156 47.855469 76.386719 47.582031 C 76.78125 47.394531 77.089844 47.207031 77.339844 47 C 77.484375 46.875 77.628906 46.730469 77.710938 46.5625 C 77.730469 46.480469 77.75 46.394531 77.773438 46.332031 Z M 66.992188 46.332031 "/>
<path style=" stroke:none;fill-rule:nonzero;fill:rgb(100%,92.156863%,53.333336%);fill-opacity:1;" d="M 79.40625 46.332031 L 77.792969 46.332031 C 77.773438 46.417969 77.75 46.5 77.730469 46.5625 C 77.667969 46.8125 77.585938 47.082031 77.503906 47.332031 C 75.953125 52.457031 73.261719 57.0625 69.683594 60.875 C 69.019531 61.582031 68.316406 62.269531 67.59375 62.917969 C 65.917969 64.4375 64.054688 65.792969 62.070312 66.957031 C 56.460938 70.269531 50.191406 71.855469 43.882812 71.667969 C 42.746094 71.625 41.585938 71.542969 40.449219 71.375 C 39.910156 71.292969 39.351562 71.207031 38.8125 71.105469 C 38.234375 71 37.65625 70.875 37.074219 70.730469 C 36.808594 70.667969 36.539062 70.605469 36.289062 70.519531 C 36.125 70.480469 35.980469 70.4375 35.8125 70.394531 C 35.234375 70.230469 34.65625 70.042969 34.074219 69.855469 C 33.660156 69.707031 33.226562 69.5625 32.8125 69.394531 C 31.40625 68.855469 30.019531 68.207031 28.71875 67.5 C 23.316406 64.542969 18.808594 60.125 15.621094 54.605469 C 14.835938 53.25 14.152344 51.855469 13.574219 50.417969 C 13.074219 49.207031 12.640625 47.957031 12.289062 46.707031 C 12.25 46.582031 12.207031 46.457031 12.1875 46.332031 L 10.367188 46.332031 C 11.171875 49.5 12.414062 52.582031 14.089844 55.5 C 18.890625 63.855469 26.605469 69.8125 35.835938 72.25 C 38.855469 73.0625 41.917969 73.457031 44.957031 73.457031 C 51.207031 73.457031 57.394531 71.769531 62.957031 68.5 C 71.234375 63.625 77.132812 55.792969 79.574219 46.457031 C 79.59375 46.417969 79.59375 46.375 79.613281 46.332031 Z M 79.40625 46.332031 "/>
<path style=" stroke:none;fill-rule:nonzero;fill:url(#linear8);" d="M 66.0625 19.3125 C 66.683594 19.582031 67.304688 19.875 67.925781 20.1875 L 67.902344 20.105469 C 67.863281 19.9375 67.820312 19.75 67.757812 19.582031 C 66.972656 16.855469 65.898438 14.355469 64.53125 12.144531 C 64.015625 12.292969 63.457031 12.394531 62.773438 12.480469 C 61.632812 12.582031 60.394531 12.582031 58.984375 12.480469 C 58.839844 12.480469 58.71875 12.457031 58.574219 12.4375 L 58.550781 12.4375 C 58.675781 13.667969 58.738281 14.980469 58.738281 16.375 C 61.261719 17.269531 63.746094 18.269531 66.0625 19.3125 Z M 66.0625 19.3125 "/>
<path style=" stroke:none;fill-rule:nonzero;fill:url(#linear9);" d="M 66.207031 10.8125 C 66.101562 11.230469 65.792969 11.5 65.542969 11.667969 C 65.398438 11.769531 65.234375 11.855469 65.027344 11.9375 C 66.351562 14.167969 67.40625 16.707031 68.171875 19.5 C 68.234375 19.75 68.296875 19.980469 68.359375 20.230469 L 68.398438 20.417969 C 70.199219 21.3125 71.75 22.1875 73.199219 23.105469 C 74.585938 24 75.578125 24.769531 76.40625 25.582031 C 76.800781 25.980469 77.132812 26.332031 77.378906 26.707031 C 76.632812 24.375 75.640625 22.105469 74.378906 19.917969 C 72.601562 16.832031 70.40625 14.082031 67.863281 11.75 C 67.675781 11.582031 67.46875 11.394531 67.28125 11.230469 C 67.21875 11.1875 67.179688 11.125 67.117188 11.082031 C 66.828125 10.832031 66.539062 10.582031 66.25 10.355469 C 66.226562 10.332031 66.207031 10.332031 66.207031 10.3125 C 66.25 10.5 66.25 10.667969 66.207031 10.8125 Z M 66.207031 10.8125 "/>
<path style=" stroke:none;fill-rule:nonzero;fill:url(#linear10);" d="M 44.007812 13.042969 C 43.46875 14 42.953125 15.019531 42.394531 16.125 C 41.070312 18.832031 39.828125 21.8125 38.605469 25.25 C 38.605469 25.269531 38.585938 25.292969 38.585938 25.3125 C 38.585938 25.3125 38.585938 25.332031 38.585938 25.332031 C 41.277344 26.3125 44.089844 27.230469 46.964844 28.042969 C 48 28.332031 49.015625 28.605469 49.984375 28.855469 L 57.308594 28.855469 C 57.765625 25.855469 58.074219 22.9375 58.199219 20.1875 C 58.261719 19.042969 58.28125 17.855469 58.261719 16.667969 C 55.820312 15.875 53.296875 15.167969 50.523438 14.457031 C 48.351562 13.9375 46.179688 13.457031 44.007812 13.042969 Z M 44.007812 13.042969 "/>
<path style=" stroke:none;fill-rule:nonzero;fill:url(#linear11);" d="M 63.101562 9.1875 C 63.746094 9.980469 64.34375 10.832031 64.902344 11.75 C 65.089844 11.667969 65.253906 11.582031 65.378906 11.5 C 65.605469 11.355469 65.898438 11.105469 66 10.730469 C 66.042969 10.542969 66.042969 10.355469 65.980469 10.125 C 64.574219 9.019531 63.082031 8.019531 61.53125 7.144531 C 61.488281 7.125 61.425781 7.082031 61.386719 7.0625 C 61.261719 7 61.160156 6.9375 61.035156 6.875 C 60.929688 6.832031 60.847656 6.769531 60.746094 6.730469 C 61.59375 7.457031 62.378906 8.292969 63.101562 9.1875 Z M 63.101562 9.1875 "/>
<path style=" stroke:none;fill-rule:nonzero;fill:url(#linear12);" d="M 52.863281 47.082031 C 51.601562 46.855469 50.316406 46.605469 49.035156 46.332031 L 44.605469 46.332031 C 47.253906 47.144531 49.820312 48 52.21875 48.917969 C 52.449219 48.332031 52.65625 47.730469 52.863281 47.082031 Z M 52.863281 47.082031 "/>
<path style=" stroke:none;fill-rule:nonzero;fill:url(#linear13);" d="M 37.40625 28.875 L 39.683594 28.875 C 38.957031 28.730469 38.253906 28.582031 37.53125 28.457031 C 37.488281 28.605469 37.449219 28.730469 37.40625 28.875 Z M 37.40625 28.875 "/>
<path style=" stroke:none;fill-rule:nonzero;fill:url(#linear14);" d="M 46.511719 28.875 C 43.550781 28.125 40.839844 27.332031 38.191406 26.457031 L 38.132812 26.644531 C 38.027344 26.957031 37.925781 27.25 37.820312 27.5625 C 39.660156 27.957031 41.503906 28.394531 43.40625 28.894531 L 46.511719 28.894531 Z M 46.511719 28.875 "/>
<path style=" stroke:none;fill-rule:nonzero;fill:url(#linear15);" d="M 39.476562 4.355469 C 39.601562 4.582031 39.765625 4.8125 39.992188 5.082031 C 39.992188 5.082031 39.992188 5.082031 40.015625 5.105469 C 41.046875 4.542969 42.101562 4.0625 43.160156 3.667969 C 44.046875 3.332031 44.957031 3.082031 45.867188 2.875 C 45.601562 2.875 45.351562 2.855469 45.082031 2.855469 C 43.21875 2.855469 41.359375 3.019531 39.539062 3.3125 C 39.457031 3.417969 39.394531 3.519531 39.371094 3.625 C 39.289062 3.832031 39.351562 4.082031 39.476562 4.355469 Z M 39.476562 4.355469 "/>
<path style=" stroke:none;fill-rule:nonzero;fill:url(#linear16);" d="M 19.71875 25.207031 C 20.917969 25.207031 22.199219 25.25 23.585938 25.355469 C 24.164062 23.875 24.828125 22.394531 25.511719 21.019531 C 25.015625 20.730469 24.558594 20.457031 24.144531 20.207031 C 23.191406 19.605469 21.953125 18.75 20.8125 17.667969 C 20.378906 17.25 19.839844 16.6875 19.40625 15.957031 C 19.242188 15.667969 19.117188 15.394531 19.015625 15.125 C 16.304688 18.375 14.214844 22.105469 12.828125 26.1875 C 13.632812 25.855469 14.421875 25.6875 15.042969 25.5625 C 16.78125 25.269531 18.457031 25.230469 19.71875 25.207031 Z M 19.71875 25.207031 "/>
<path style=" stroke:none;fill-rule:nonzero;fill:url(#linear17);" d="M 22.367188 28.875 C 22.59375 28.125 22.863281 27.355469 23.132812 26.605469 C 22.117188 26.5625 21.101562 26.519531 20.132812 26.519531 C 19.984375 26.519531 19.863281 26.519531 19.71875 26.519531 C 17.9375 26.542969 16.53125 26.667969 15.308594 26.875 C 14.484375 27.019531 13.820312 27.230469 13.28125 27.457031 C 12.785156 27.6875 12.394531 27.980469 12.207031 28.292969 C 12.1875 28.355469 12.164062 28.4375 12.144531 28.5 C 12.125 28.605469 12.082031 28.707031 12.0625 28.832031 C 12.0625 28.832031 12.0625 28.855469 12.0625 28.855469 L 22.367188 28.855469 Z M 22.367188 28.875 "/>
<path style=" stroke:none;fill-rule:nonzero;fill:url(#linear18);" d="M 48.558594 3.355469 C 46.839844 3.5 45.082031 3.917969 43.34375 4.605469 C 42.496094 4.9375 41.628906 5.332031 40.800781 5.8125 C 40.984375 5.957031 41.191406 6.105469 41.398438 6.269531 C 42.308594 6.917969 43.367188 7.519531 44.628906 8.105469 C 45 8.269531 45.394531 8.457031 45.847656 8.667969 C 46.21875 8.167969 46.574219 7.707031 46.902344 7.332031 C 48.082031 5.9375 49.179688 4.917969 50.253906 4.1875 C 50.691406 3.894531 51.144531 3.667969 51.578125 3.5 C 51.269531 3.4375 50.957031 3.375 50.648438 3.332031 C 49.925781 3.292969 49.21875 3.292969 48.558594 3.355469 Z M 48.558594 3.355469 "/>
<path style=" stroke:none;fill-rule:nonzero;fill:url(#linear19);" d="M 52.136719 4.082031 C 51.601562 4.25 51.019531 4.519531 50.421875 4.9375 C 49.40625 5.644531 48.394531 6.644531 47.316406 8 C 47.089844 8.292969 46.839844 8.625 46.574219 8.980469 C 48.125 9.625 49.820312 10.207031 51.578125 10.707031 C 53.855469 11.355469 55.945312 11.792969 57.929688 12.042969 C 57.867188 11.519531 57.785156 11.0625 57.722656 10.605469 C 57.414062 8.894531 57 7.519531 56.421875 6.417969 C 55.984375 5.5625 55.261719 4.519531 54.164062 4.105469 C 54.019531 4.0625 53.875 4.019531 53.730469 3.980469 C 53.710938 3.980469 53.667969 3.957031 53.648438 3.957031 C 53.171875 3.894531 52.65625 3.917969 52.136719 4.082031 Z M 52.136719 4.082031 "/>
<path style=" stroke:none;fill-rule:nonzero;fill:url(#linear20);" d="M 20.667969 15.125 C 20.917969 15.5625 21.308594 16.019531 21.828125 16.542969 C 22.613281 17.3125 23.605469 18.0625 24.910156 18.917969 C 25.324219 19.1875 25.757812 19.4375 26.234375 19.730469 C 26.234375 19.707031 26.253906 19.707031 26.253906 19.6875 C 27.910156 16.667969 29.855469 13.917969 32.046875 11.5 C 30.164062 11.394531 28.488281 11.375 26.875 11.457031 C 25.324219 11.542969 24.101562 11.707031 23.027344 12 C 22.34375 12.1875 21.785156 12.394531 21.351562 12.644531 C 21.019531 12.957031 20.710938 13.292969 20.398438 13.625 C 20.378906 13.644531 20.378906 13.6875 20.378906 13.730469 C 20.234375 14.105469 20.359375 14.582031 20.667969 15.125 Z M 20.667969 15.125 "/>
<path style=" stroke:none;fill-rule:nonzero;fill:url(#linear21);" d="M 53.109375 46.332031 L 52.117188 46.332031 C 52.425781 46.394531 52.738281 46.457031 53.027344 46.519531 C 53.070312 46.480469 53.089844 46.394531 53.109375 46.332031 Z M 53.109375 46.332031 "/>
<path style=" stroke:none;fill-rule:nonzero;fill:url(#linear22);" d="M 33.101562 10.355469 C 33.144531 10.3125 33.1875 10.269531 33.25 10.207031 C 33.308594 10.125 33.394531 10.0625 33.457031 10 C 35.296875 8.207031 37.242188 6.6875 39.289062 5.480469 C 39.101562 5.25 38.957031 5.042969 38.835938 4.8125 C 38.730469 4.605469 38.667969 4.417969 38.628906 4.207031 C 38.585938 3.957031 38.585938 3.707031 38.648438 3.480469 C 34.945312 4.207031 31.324219 5.582031 27.953125 7.5625 C 26.484375 8.4375 25.074219 9.417969 23.75 10.457031 C 24.640625 10.292969 25.613281 10.207031 26.773438 10.144531 C 28.695312 10.082031 30.703125 10.144531 33.101562 10.355469 Z M 33.101562 10.355469 "/>
<path style=" stroke:none;fill-rule:nonzero;fill:url(#linear23);" d="M 58.261719 10.480469 C 58.34375 10.957031 58.40625 11.480469 58.46875 12.105469 L 58.511719 12.105469 C 58.632812 12.125 58.757812 12.144531 58.902344 12.144531 C 60.414062 12.292969 61.574219 12.3125 62.648438 12.230469 C 63.332031 12.167969 63.890625 12.082031 64.386719 11.9375 C 63.828125 11.0625 63.25 10.25 62.605469 9.519531 C 61.40625 8.082031 60.042969 6.875 58.59375 5.917969 C 58.199219 5.667969 57.808594 5.4375 57.371094 5.1875 C 56.980469 5.019531 56.566406 4.875 56.152344 4.730469 C 56.460938 5.125 56.730469 5.5625 56.980469 6.0625 C 57.558594 7.25 57.972656 8.6875 58.261719 10.480469 Z M 58.261719 10.480469 "/>
<path style=" stroke:none;fill-rule:nonzero;fill:url(#linear24);" d="M 53.152344 47.144531 C 52.945312 47.75 52.738281 48.375 52.511719 49.042969 C 54.351562 49.75 56.027344 50.457031 57.640625 51.1875 C 59.792969 52.167969 61.65625 53.125 63.351562 54.105469 C 64.261719 52.394531 65.089844 50.582031 65.792969 48.730469 C 64.179688 48.625 62.484375 48.480469 60.765625 48.269531 C 58.324219 48 55.757812 47.605469 53.152344 47.144531 Z M 53.152344 47.144531 "/>
<path style=" stroke:none;fill-rule:nonzero;fill:url(#linear25);" d="M 63.496094 54.542969 L 63.433594 54.644531 C 61.632812 57.980469 59.542969 60.9375 57.1875 63.4375 C 59.027344 63.5625 60.660156 63.605469 62.214844 63.542969 C 63.828125 63.457031 65.046875 63.292969 66.164062 63.019531 C 66.929688 62.8125 67.53125 62.582031 68.027344 62.3125 C 68.503906 62.042969 69.101562 61.5625 69.308594 60.855469 C 69.496094 60.144531 69.207031 59.417969 68.917969 58.957031 C 68.628906 58.457031 68.214844 57.957031 67.65625 57.417969 C 66.828125 56.625 65.8125 55.855469 64.46875 55 C 64.179688 54.8125 63.910156 54.644531 63.558594 54.457031 C 63.558594 54.457031 63.539062 54.5 63.496094 54.542969 Z M 63.496094 54.542969 "/>
<path style=" stroke:none;fill-rule:nonzero;fill:url(#linear26);" d="M 52.097656 49.292969 C 49.015625 48.207031 45.785156 47.25 42.1875 46.355469 C 42.144531 46.355469 42.101562 46.332031 42.082031 46.332031 L 33.25 46.332031 C 32.792969 49.230469 32.503906 51.875 32.359375 54.394531 C 32.277344 55.667969 32.253906 56.832031 32.234375 57.9375 C 34.324219 58.644531 36.457031 59.332031 38.628906 59.9375 C 41.277344 60.6875 43.882812 61.332031 46.386719 61.855469 C 46.984375 60.8125 47.566406 59.75 48.082031 58.707031 C 49.53125 55.832031 50.875 52.667969 52.097656 49.292969 Z M 52.097656 49.292969 "/>
<path style=" stroke:none;fill-rule:nonzero;fill:url(#linear27);" d="M 53.339844 46.605469 C 55.902344 47.125 58.304688 47.542969 60.640625 47.875 C 62.648438 48.144531 64.324219 48.3125 65.917969 48.4375 C 66.1875 47.75 66.414062 47.042969 66.660156 46.355469 L 53.421875 46.355469 C 53.398438 46.417969 53.359375 46.5 53.339844 46.605469 Z M 53.339844 46.605469 "/>
<path style=" stroke:none;fill-rule:nonzero;fill:url(#linear28);" d="M 63.25 54.3125 L 63.289062 54.230469 C 61.613281 53.25 59.730469 52.332031 57.371094 51.3125 C 55.839844 50.667969 54.207031 50.042969 52.386719 49.394531 L 52.367188 49.480469 C 52.34375 49.542969 52.324219 49.605469 52.304688 49.644531 C 51.0625 53.105469 49.800781 56.125 48.457031 58.875 C 47.917969 59.957031 47.378906 60.980469 46.839844 61.9375 C 49.46875 62.480469 51.890625 62.875 54.269531 63.167969 C 55.035156 63.25 55.820312 63.332031 56.691406 63.394531 C 59.171875 60.832031 61.34375 57.832031 63.144531 54.519531 C 63.164062 54.457031 63.207031 54.394531 63.25 54.3125 Z M 63.25 54.3125 "/>
<path style=" stroke:none;fill-rule:nonzero;fill:url(#linear29);" d="M 65.75 19.457031 C 63.515625 18.519531 61.21875 17.667969 58.695312 16.832031 C 58.695312 17.875 58.65625 18.980469 58.59375 20.230469 C 58.449219 22.917969 58.117188 25.769531 57.621094 28.875 L 69.1875 28.875 C 69.0625 25.957031 68.667969 23.144531 67.964844 20.457031 C 67.28125 20.125 66.539062 19.792969 65.75 19.457031 Z M 65.75 19.457031 "/>
<path style=" stroke:none;fill-rule:nonzero;fill:url(#linear30);" d="M 76.097656 25.542969 C 75.25 24.730469 74.277344 23.980469 72.910156 23.105469 C 71.585938 22.269531 70.136719 21.480469 68.484375 20.6875 C 69.101562 23.269531 69.457031 26.019531 69.558594 28.875 L 77.792969 28.875 C 77.917969 28.1875 77.648438 27.519531 77.378906 27.082031 C 77.070312 26.582031 76.65625 26.082031 76.097656 25.542969 Z M 76.097656 25.542969 "/>
<path style=" stroke:none;fill-rule:nonzero;fill:url(#linear31);" d="M 34.945312 10.542969 C 37.71875 10.875 40.53125 11.355469 43.59375 12.019531 L 43.632812 11.957031 C 43.78125 11.730469 43.925781 11.480469 44.070312 11.25 C 44.503906 10.5625 44.9375 9.894531 45.371094 9.269531 C 44.980469 9.105469 44.648438 8.980469 44.359375 8.832031 C 42.972656 8.1875 41.917969 7.625 40.984375 6.980469 C 40.632812 6.730469 40.304688 6.480469 40.015625 6.230469 C 38.132812 7.355469 36.308594 8.792969 34.550781 10.5 C 34.613281 10.5 34.675781 10.519531 34.738281 10.519531 Z M 34.945312 10.542969 "/>
<path style=" stroke:none;fill-rule:nonzero;fill:url(#linear32);" d="M 37.613281 25 C 38.835938 21.644531 40.179688 18.480469 41.648438 15.582031 C 42.101562 14.6875 42.578125 13.769531 43.097656 12.875 C 40.242188 12.355469 37.425781 11.957031 34.78125 11.707031 C 34.40625 11.667969 34.015625 11.644531 33.515625 11.605469 C 31.179688 14.082031 29.089844 17.042969 27.308594 20.355469 C 28.695312 21.125 30.207031 21.875 31.925781 22.644531 C 33.722656 23.457031 35.648438 24.25 37.613281 25 Z M 37.613281 25 "/>
<path style=" stroke:none;fill-rule:nonzero;fill:url(#linear33);" d="M 36.808594 27.332031 C 36.953125 26.9375 37.074219 26.519531 37.21875 26.125 C 35.191406 25.4375 33.269531 24.6875 31.449219 23.9375 C 29.628906 23.144531 28.054688 22.394531 26.628906 21.644531 C 26.007812 22.875 25.449219 24.167969 24.910156 25.480469 C 26.109375 25.582031 27.414062 25.730469 28.882812 25.9375 C 31.449219 26.292969 34.035156 26.75 36.808594 27.332031 Z M 36.808594 27.332031 "/>
<path style=" stroke:none;fill-rule:nonzero;fill:url(#linear34);" d="M 50.835938 13.832031 C 53.378906 14.5625 55.882812 15.355469 58.242188 16.1875 C 58.242188 15.894531 58.21875 15.605469 58.21875 15.3125 C 58.179688 14.292969 58.097656 13.292969 57.992188 12.375 C 55.902344 12.167969 53.792969 11.792969 51.515625 11.25 C 49.550781 10.769531 47.8125 10.230469 46.160156 9.582031 C 45.601562 10.394531 45.042969 11.292969 44.484375 12.230469 C 46.550781 12.6875 48.683594 13.230469 50.835938 13.832031 Z M 50.835938 13.832031 "/>
<path style=" stroke:none;fill-rule:nonzero;fill:url(#linear35);" d="M 22.40625 53.980469 C 22.800781 54.167969 23.191406 54.355469 23.648438 54.5625 C 26.089844 55.667969 28.675781 56.707031 31.367188 57.667969 C 31.367188 56.605469 31.367188 55.542969 31.425781 54.519531 C 31.550781 51.894531 31.820312 49.167969 32.234375 46.355469 L 21.332031 46.355469 C 21.457031 49 21.828125 51.5625 22.40625 53.980469 Z M 22.40625 53.980469 "/>
<path style=" stroke:none;fill-rule:nonzero;fill:url(#linear36);" d="M 36.496094 28.269531 C 33.765625 27.769531 31.21875 27.394531 28.695312 27.105469 C 27.25 26.9375 25.820312 26.792969 24.457031 26.707031 C 24.1875 27.4375 23.9375 28.167969 23.710938 28.894531 L 36.289062 28.894531 C 36.371094 28.667969 36.433594 28.457031 36.496094 28.269531 Z M 36.496094 28.269531 "/>
<path style=" stroke:none;fill-rule:nonzero;fill:rgb(100%,100%,100%);fill-opacity:1;" d="M 61.035156 6.875 C 61.160156 6.9375 61.261719 7 61.386719 7.0625 C 61.261719 7 61.136719 6.9375 61.035156 6.875 Z M 61.035156 6.875 "/>
<path style=" stroke:none;fill-rule:nonzero;fill:rgb(100%,92.156863%,53.333336%);fill-opacity:1;" d="M 66.226562 10.3125 C 66.25 10.332031 66.269531 10.332031 66.269531 10.355469 C 66.25 10.332031 66.25 10.332031 66.226562 10.3125 Z M 66.226562 10.3125 "/>
<path style=" stroke:none;fill-rule:nonzero;fill:rgb(100%,92.156863%,53.333336%);fill-opacity:1;" d="M 60.746094 6.707031 C 60.746094 6.707031 60.746094 6.730469 60.746094 6.707031 C 60.847656 6.769531 60.929688 6.8125 61.035156 6.875 C 60.929688 6.8125 60.847656 6.769531 60.746094 6.707031 Z M 60.746094 6.707031 "/>
<path style=" stroke:none;fill-rule:nonzero;fill:rgb(100%,92.156863%,53.333336%);fill-opacity:1;" d="M 61.367188 7.0625 C 61.40625 7.082031 61.46875 7.125 61.511719 7.144531 C 61.46875 7.125 61.425781 7.082031 61.367188 7.0625 Z M 61.367188 7.0625 "/>
<path style=" stroke:none;fill-rule:nonzero;fill:rgb(100%,100%,100%);fill-opacity:1;" d="M 79.820312 28.875 L 78 28.875 C 77.8125 28.144531 77.605469 27.4375 77.378906 26.707031 C 77.109375 26.355469 76.800781 25.980469 76.40625 25.582031 C 75.558594 24.769531 74.566406 24 73.199219 23.105469 C 71.75 22.1875 70.199219 21.292969 68.398438 20.417969 L 68.359375 20.230469 C 68.296875 19.980469 68.234375 19.75 68.171875 19.5 C 67.40625 16.707031 66.351562 14.144531 65.027344 11.9375 C 65.234375 11.855469 65.398438 11.769531 65.542969 11.667969 C 65.792969 11.5 66.101562 11.230469 66.207031 10.8125 C 66.25 10.667969 66.25 10.5 66.226562 10.3125 C 66.144531 10.25 66.0625 10.1875 65.980469 10.125 C 66.042969 10.355469 66.042969 10.542969 66 10.730469 C 65.898438 11.105469 65.605469 11.355469 65.378906 11.5 C 65.234375 11.582031 65.089844 11.667969 64.902344 11.75 C 64.34375 10.832031 63.746094 9.957031 63.101562 9.1875 C 62.378906 8.292969 61.59375 7.457031 60.746094 6.730469 C 59.648438 6.167969 58.53125 5.644531 57.371094 5.1875 C 57.808594 5.417969 58.199219 5.667969 58.59375 5.917969 C 60.042969 6.875 61.40625 8.082031 62.605469 9.519531 C 63.226562 10.269531 63.828125 11.082031 64.386719 11.9375 C 63.890625 12.082031 63.332031 12.167969 62.648438 12.230469 C 61.574219 12.3125 60.414062 12.292969 58.902344 12.144531 C 58.78125 12.125 58.65625 12.125 58.511719 12.105469 L 58.46875 12.105469 C 58.40625 11.480469 58.34375 10.957031 58.261719 10.480469 C 57.972656 8.6875 57.558594 7.25 56.980469 6.0625 C 56.730469 5.5625 56.460938 5.105469 56.152344 4.730469 C 55.511719 4.5 54.847656 4.292969 54.1875 4.105469 C 55.28125 4.519531 56.007812 5.5625 56.441406 6.417969 C 57 7.519531 57.433594 8.894531 57.746094 10.605469 C 57.828125 11.042969 57.890625 11.519531 57.953125 12.042969 C 55.964844 11.792969 53.875 11.332031 51.601562 10.707031 C 49.839844 10.207031 48.164062 9.625 46.59375 8.980469 C 46.863281 8.605469 47.109375 8.292969 47.339844 8 C 48.414062 6.644531 49.425781 5.644531 50.441406 4.9375 C 51.042969 4.519531 51.621094 4.230469 52.160156 4.082031 C 52.675781 3.9375 53.191406 3.894531 53.667969 3.980469 C 52.964844 3.792969 52.28125 3.625 51.578125 3.5 C 51.144531 3.667969 50.710938 3.894531 50.253906 4.1875 C 49.160156 4.894531 48.0625 5.917969 46.902344 7.332031 C 46.574219 7.730469 46.242188 8.167969 45.847656 8.667969 C 45.394531 8.480469 45 8.292969 44.628906 8.105469 C 43.367188 7.5 42.308594 6.894531 41.398438 6.269531 C 41.191406 6.125 40.984375 5.980469 40.800781 5.8125 C 41.648438 5.355469 42.496094 4.9375 43.34375 4.605469 C 45.082031 3.917969 46.820312 3.5 48.558594 3.355469 C 49.242188 3.292969 49.925781 3.292969 50.628906 3.3125 C 49.035156 3.042969 47.441406 2.894531 45.867188 2.855469 C 44.957031 3.042969 44.046875 3.3125 43.160156 3.644531 C 42.101562 4.019531 41.046875 4.519531 40.015625 5.082031 C 40.015625 5.082031 39.992188 5.082031 39.992188 5.0625 C 39.765625 4.8125 39.601562 4.5625 39.476562 4.332031 C 39.351562 4.082031 39.289062 3.8125 39.351562 3.625 C 39.371094 3.519531 39.433594 3.417969 39.515625 3.3125 C 39.226562 3.355469 38.9375 3.417969 38.648438 3.480469 C 38.585938 3.707031 38.585938 3.957031 38.628906 4.207031 C 38.667969 4.417969 38.730469 4.605469 38.835938 4.8125 C 38.957031 5.042969 39.101562 5.25 39.289062 5.480469 C 37.261719 6.667969 35.296875 8.1875 33.457031 10 C 33.394531 10.0625 33.308594 10.144531 33.25 10.207031 C 33.207031 10.25 33.164062 10.292969 33.101562 10.355469 C 30.703125 10.144531 28.695312 10.0625 26.792969 10.144531 C 25.613281 10.207031 24.640625 10.3125 23.773438 10.457031 C 22.925781 11.144531 22.117188 11.875 21.332031 12.625 C 21.765625 12.375 22.324219 12.167969 23.007812 11.980469 C 24.082031 11.707031 25.304688 11.542969 26.855469 11.4375 C 28.46875 11.355469 30.164062 11.355469 32.027344 11.480469 C 29.835938 13.894531 27.890625 16.644531 26.234375 19.667969 C 26.234375 19.6875 26.214844 19.6875 26.214844 19.707031 C 25.738281 19.417969 25.304688 19.167969 24.890625 18.894531 C 23.585938 18.042969 22.613281 17.292969 21.808594 16.519531 C 21.289062 16 20.917969 15.542969 20.648438 15.105469 C 20.339844 14.582031 20.234375 14.082031 20.339844 13.707031 C 20.339844 13.667969 20.359375 13.644531 20.359375 13.605469 C 19.902344 14.082031 19.449219 14.582031 19.015625 15.105469 C 19.097656 15.375 19.242188 15.644531 19.40625 15.9375 C 19.839844 16.667969 20.378906 17.25 20.8125 17.644531 C 21.953125 18.730469 23.191406 19.5625 24.144531 20.1875 C 24.558594 20.457031 25.015625 20.730469 25.511719 21 C 24.808594 22.394531 24.164062 23.855469 23.585938 25.332031 C 22.179688 25.230469 20.917969 25.1875 19.71875 25.1875 C 18.457031 25.1875 16.757812 25.25 15.042969 25.542969 C 14.421875 25.644531 13.632812 25.832031 12.828125 26.167969 C 12.601562 26.875 12.371094 27.582031 12.1875 28.292969 C 12.371094 27.980469 12.765625 27.6875 13.261719 27.457031 C 13.800781 27.207031 14.460938 27.019531 15.289062 26.875 C 16.53125 26.644531 17.917969 26.542969 19.695312 26.519531 C 19.839844 26.519531 19.964844 26.519531 20.109375 26.519531 C 21.082031 26.519531 22.074219 26.542969 23.109375 26.605469 C 22.839844 27.355469 22.59375 28.105469 22.34375 28.875 L 1.40625 28.875 L 1.40625 46.332031 L 20.109375 46.332031 C 20.234375 48.730469 20.566406 51.0625 21.082031 53.3125 C 19.425781 52.480469 18 51.667969 16.675781 50.8125 C 15.371094 49.957031 14.398438 49.207031 13.613281 48.4375 C 13.097656 47.9375 12.722656 47.457031 12.457031 47.019531 C 12.394531 46.917969 12.332031 46.792969 12.289062 46.6875 C 12.640625 47.9375 13.074219 49.1875 13.574219 50.394531 C 14.253906 50.957031 15 51.5 15.929688 52.082031 C 17.542969 53.105469 19.367188 54.0625 21.515625 55.0625 L 21.539062 55.144531 C 21.558594 55.1875 21.558594 55.230469 21.578125 55.269531 C 22.738281 59.269531 24.578125 62.855469 26.898438 65.605469 C 27.476562 66.292969 28.074219 66.917969 28.71875 67.5 C 30.042969 68.230469 31.40625 68.855469 32.8125 69.394531 C 32.339844 69.125 31.882812 68.855469 31.449219 68.5625 C 30.019531 67.582031 28.695312 66.355469 27.539062 64.894531 C 25.53125 62.394531 23.957031 59.3125 22.882812 55.6875 C 22.925781 55.707031 22.984375 55.730469 23.027344 55.75 C 23.089844 55.769531 23.152344 55.792969 23.191406 55.832031 C 25.78125 56.917969 28.449219 57.894531 31.40625 58.832031 C 31.40625 58.917969 31.40625 58.980469 31.40625 59.0625 C 31.40625 59.207031 31.40625 59.332031 31.425781 59.480469 C 31.511719 61.292969 31.675781 62.855469 31.945312 64.3125 C 32.277344 66.105469 32.730469 67.542969 33.332031 68.707031 C 33.558594 69.144531 33.808594 69.542969 34.074219 69.875 C 34.65625 70.0625 35.234375 70.25 35.8125 70.417969 C 34.863281 69.917969 34.242188 68.9375 33.867188 68.144531 C 33.332031 67.042969 32.9375 65.667969 32.667969 63.957031 C 32.441406 62.480469 32.316406 60.894531 32.277344 59.105469 C 34.28125 59.730469 36.394531 60.3125 38.542969 60.855469 C 41.070312 61.480469 43.59375 62.019531 46.035156 62.480469 L 45.972656 62.582031 C 45.890625 62.707031 45.808594 62.855469 45.722656 62.980469 C 44.792969 64.480469 43.902344 65.730469 42.992188 66.832031 C 41.875 68.167969 40.839844 69.144531 39.808594 69.832031 C 39.207031 70.230469 38.605469 70.5 38.070312 70.644531 C 37.738281 70.730469 37.40625 70.769531 37.074219 70.769531 C 37.65625 70.917969 38.234375 71.042969 38.8125 71.144531 C 39.25 70.957031 39.683594 70.730469 40.097656 70.4375 C 41.171875 69.6875 42.25 68.644531 43.367188 67.25 C 44.421875 65.9375 45.433594 64.394531 46.488281 62.582031 C 49.179688 63.0625 51.847656 63.417969 54.371094 63.667969 C 55.015625 63.730469 55.65625 63.769531 56.296875 63.832031 C 56.277344 63.855469 56.277344 63.855469 56.253906 63.875 C 56.191406 63.9375 56.132812 64 56.070312 64.0625 C 53.191406 66.894531 49.945312 69.042969 46.675781 70.25 C 44.917969 70.894531 43.160156 71.269531 41.421875 71.394531 C 41.109375 71.417969 40.800781 71.417969 40.449219 71.417969 C 41.585938 71.5625 42.746094 71.667969 43.882812 71.707031 C 44.917969 71.480469 45.929688 71.1875 46.945312 70.792969 C 50.253906 69.5 53.441406 67.332031 56.421875 64.332031 C 56.503906 64.25 56.605469 64.144531 56.691406 64.042969 C 56.75 63.980469 56.792969 63.9375 56.855469 63.875 C 58.863281 64 60.683594 64.019531 62.421875 63.917969 C 64.054688 63.832031 65.277344 63.644531 66.414062 63.355469 C 66.847656 63.230469 67.21875 63.105469 67.574219 62.957031 C 68.296875 62.3125 69 61.625 69.660156 60.917969 C 69.785156 60.207031 69.515625 59.519531 69.226562 59.0625 C 68.917969 58.542969 68.523438 58.042969 67.945312 57.480469 C 67.097656 56.667969 66.125 55.894531 64.738281 55 C 64.40625 54.792969 64.035156 54.5625 63.621094 54.3125 C 64.550781 52.5625 65.378906 50.707031 66.101562 48.792969 C 67.425781 48.855469 68.648438 48.894531 69.847656 48.894531 C 71.691406 48.875 73.097656 48.769531 74.398438 48.519531 C 75.019531 48.394531 75.828125 48.230469 76.613281 47.875 C 76.964844 47.707031 77.234375 47.5625 77.460938 47.375 C 77.542969 47.125 77.605469 46.855469 77.691406 46.605469 C 77.585938 46.75 77.460938 46.894531 77.316406 47.042969 C 77.070312 47.269531 76.757812 47.457031 76.367188 47.625 C 75.765625 47.894531 75.101562 48.082031 74.191406 48.25 C 72.910156 48.480469 71.523438 48.582031 69.683594 48.605469 C 68.585938 48.605469 67.46875 48.5625 66.25 48.480469 C 66.515625 47.769531 66.746094 47.0625 66.972656 46.375 L 88.46875 46.375 L 88.46875 28.917969 L 79.820312 28.917969 Z M 58.53125 12.417969 C 58.675781 12.4375 58.800781 12.4375 58.945312 12.457031 C 60.351562 12.5625 61.59375 12.5625 62.730469 12.457031 C 63.414062 12.394531 63.992188 12.292969 64.488281 12.125 C 65.855469 14.3125 66.953125 16.8125 67.71875 19.5625 C 67.78125 19.730469 67.820312 19.917969 67.863281 20.082031 L 67.882812 20.167969 C 67.28125 19.875 66.640625 19.582031 66.019531 19.292969 C 63.722656 18.25 61.242188 17.25 58.65625 16.332031 C 58.65625 14.957031 58.59375 13.625 58.46875 12.394531 Z M 58.199219 20.207031 C 58.074219 22.980469 57.765625 25.894531 57.308594 28.875 L 49.984375 28.875 C 48.992188 28.625 47.980469 28.355469 46.964844 28.0625 C 44.089844 27.25 41.277344 26.332031 38.585938 25.355469 C 38.585938 25.355469 38.585938 25.332031 38.585938 25.332031 C 38.585938 25.3125 38.605469 25.292969 38.605469 25.269531 C 39.828125 21.832031 41.089844 18.855469 42.394531 16.144531 C 42.953125 15.019531 43.46875 14.019531 44.007812 13.0625 C 46.160156 13.480469 48.351562 13.957031 50.503906 14.5 C 53.277344 15.207031 55.820312 15.917969 58.242188 16.707031 C 58.261719 17.875 58.242188 19.042969 58.199219 20.207031 Z M 37.820312 27.542969 C 37.925781 27.230469 38.027344 26.9375 38.132812 26.625 L 38.191406 26.4375 C 40.839844 27.3125 43.550781 28.105469 46.511719 28.855469 L 43.40625 28.855469 C 41.503906 28.375 39.660156 27.9375 37.820312 27.542969 Z M 39.683594 28.875 L 37.40625 28.875 C 37.449219 28.730469 37.488281 28.582031 37.53125 28.457031 C 38.234375 28.582031 38.957031 28.730469 39.683594 28.875 Z M 49.035156 46.332031 C 50.316406 46.605469 51.601562 46.855469 52.863281 47.082031 C 52.65625 47.730469 52.449219 48.332031 52.21875 48.917969 C 49.800781 48 47.253906 47.125 44.605469 46.332031 Z M 52.117188 46.332031 L 53.109375 46.332031 C 53.089844 46.394531 53.070312 46.457031 53.046875 46.519531 C 52.738281 46.480469 52.425781 46.394531 52.117188 46.332031 Z M 46.160156 9.582031 C 47.792969 10.207031 49.550781 10.75 51.515625 11.25 C 53.792969 11.8125 55.902344 12.1875 57.992188 12.375 C 58.097656 13.292969 58.179688 14.292969 58.21875 15.3125 C 58.242188 15.605469 58.242188 15.894531 58.242188 16.1875 C 55.863281 15.355469 53.378906 14.5625 50.835938 13.832031 C 48.683594 13.230469 46.550781 12.6875 44.503906 12.230469 C 45.042969 11.292969 45.601562 10.394531 46.160156 9.582031 Z M 40.035156 6.25 C 40.324219 6.5 40.632812 6.75 41.007812 7 C 41.9375 7.644531 42.972656 8.207031 44.378906 8.855469 C 44.691406 9 45 9.125 45.394531 9.292969 C 44.957031 9.917969 44.503906 10.582031 44.089844 11.269531 C 43.945312 11.5 43.800781 11.75 43.65625 11.980469 L 43.613281 12.042969 C 40.574219 11.375 37.738281 10.894531 34.964844 10.5625 L 34.757812 10.542969 C 34.695312 10.542969 34.632812 10.519531 34.574219 10.519531 C 36.308594 8.792969 38.152344 7.375 40.035156 6.25 Z M 27.289062 20.355469 C 29.070312 17.042969 31.160156 14.105469 33.496094 11.605469 C 34.015625 11.644531 34.40625 11.6875 34.757812 11.707031 C 37.425781 11.957031 40.21875 12.355469 43.074219 12.875 C 42.558594 13.769531 42.0625 14.6875 41.628906 15.582031 C 40.179688 18.480469 38.8125 21.644531 37.59375 25 C 35.628906 24.25 33.703125 23.457031 31.882812 22.644531 C 30.1875 21.875 28.695312 21.125 27.289062 20.355469 Z M 26.628906 21.644531 C 28.035156 22.394531 29.628906 23.144531 31.449219 23.9375 C 33.269531 24.707031 35.191406 25.4375 37.21875 26.125 C 37.074219 26.519531 36.953125 26.9375 36.808594 27.332031 C 34.035156 26.75 31.449219 26.292969 28.902344 25.9375 C 27.433594 25.75 26.132812 25.582031 24.929688 25.480469 C 25.449219 24.167969 26.007812 22.875 26.628906 21.644531 Z M 24.457031 26.6875 C 25.820312 26.769531 27.25 26.917969 28.695312 27.082031 C 31.199219 27.375 33.765625 27.769531 36.496094 28.25 C 36.433594 28.457031 36.371094 28.667969 36.308594 28.855469 L 23.730469 28.855469 C 23.9375 28.144531 24.1875 27.417969 24.457031 26.6875 Z M 31.425781 54.5 C 31.386719 55.519531 31.367188 56.582031 31.367188 57.644531 C 28.675781 56.6875 26.089844 55.644531 23.648438 54.542969 C 23.191406 54.332031 22.78125 54.144531 22.40625 53.957031 C 21.808594 51.542969 21.457031 48.980469 21.332031 46.332031 L 32.234375 46.332031 C 31.820312 49.144531 31.550781 51.875 31.425781 54.5 Z M 46.386719 61.875 C 43.902344 61.355469 41.296875 60.707031 38.628906 59.957031 C 36.476562 59.355469 34.324219 58.667969 32.234375 57.957031 C 32.234375 56.832031 32.277344 55.667969 32.359375 54.417969 C 32.503906 51.894531 32.792969 49.230469 33.25 46.355469 L 42.082031 46.355469 C 42.125 46.355469 42.164062 46.375 42.1875 46.375 C 45.765625 47.269531 49.015625 48.230469 52.097656 49.3125 C 50.875 52.6875 49.53125 55.855469 48.082031 58.730469 C 47.566406 59.769531 46.984375 60.832031 46.386719 61.875 Z M 56.667969 63.417969 C 55.800781 63.355469 55.015625 63.269531 54.25 63.1875 C 51.890625 62.894531 49.449219 62.5 46.820312 61.957031 C 47.359375 61 47.898438 59.957031 48.433594 58.894531 C 49.78125 56.144531 51.042969 53.125 52.28125 49.667969 C 52.304688 49.605469 52.324219 49.542969 52.34375 49.5 L 52.367188 49.417969 C 54.1875 50.0625 55.800781 50.6875 57.351562 51.332031 C 59.710938 52.355469 61.59375 53.292969 63.269531 54.25 L 63.226562 54.332031 C 63.1875 54.394531 63.144531 54.480469 63.125 54.542969 C 61.324219 57.875 59.152344 60.855469 56.667969 63.417969 Z M 64.488281 54.957031 C 65.835938 55.8125 66.847656 56.582031 67.675781 57.375 C 68.234375 57.9375 68.648438 58.417969 68.9375 58.917969 C 69.226562 59.394531 69.515625 60.105469 69.332031 60.8125 C 69.144531 61.519531 68.523438 62 68.046875 62.269531 C 67.550781 62.5625 66.953125 62.792969 66.1875 62.980469 C 65.070312 63.269531 63.847656 63.417969 62.234375 63.5 C 60.703125 63.5625 59.070312 63.542969 57.207031 63.394531 C 59.542969 60.875 61.65625 57.917969 63.457031 54.605469 L 63.515625 54.5 C 63.539062 54.457031 63.558594 54.417969 63.578125 54.355469 C 63.910156 54.605469 64.199219 54.792969 64.488281 54.957031 Z M 63.351562 54.105469 C 61.65625 53.105469 59.792969 52.144531 57.640625 51.1875 C 56.027344 50.457031 54.351562 49.75 52.511719 49.042969 C 52.738281 48.375 52.964844 47.75 53.152344 47.144531 C 55.757812 47.605469 58.304688 48 60.765625 48.292969 C 62.484375 48.5 64.179688 48.644531 65.792969 48.75 C 65.089844 50.582031 64.261719 52.394531 63.351562 54.105469 Z M 65.917969 48.417969 C 64.324219 48.3125 62.648438 48.125 60.640625 47.855469 C 58.304688 47.519531 55.902344 47.105469 53.339844 46.582031 C 53.359375 46.5 53.398438 46.417969 53.421875 46.332031 L 66.660156 46.332031 C 66.414062 47.042969 66.1875 47.730469 65.917969 48.417969 Z M 57.621094 28.875 C 58.117188 25.769531 58.425781 22.917969 58.59375 20.230469 C 58.65625 18.980469 58.695312 17.875 58.695312 16.832031 C 61.21875 17.667969 63.515625 18.519531 65.75 19.457031 C 66.558594 19.8125 67.28125 20.125 67.984375 20.457031 C 68.667969 23.144531 69.082031 25.957031 69.207031 28.875 Z M 77.773438 28.875 L 69.539062 28.875 C 69.433594 26.019531 69.082031 23.269531 68.460938 20.6875 C 70.117188 21.480469 71.566406 22.269531 72.890625 23.105469 C 74.253906 23.980469 75.25 24.730469 76.074219 25.542969 C 76.65625 26.105469 77.046875 26.582031 77.339844 27.082031 C 77.628906 27.542969 77.898438 28.207031 77.773438 28.875 Z M 77.773438 28.875 "/>
<path style=" stroke:none;fill-rule:nonzero;fill:rgb(100%,92.156863%,53.333336%);fill-opacity:1;" d="M 75.929688 19.042969 C 71.132812 10.6875 63.414062 4.730469 54.1875 2.292969 C 44.980469 -0.167969 35.339844 1.167969 27.0625 6.042969 C 22.117188 8.957031 18.019531 12.917969 15 17.644531 C 12.972656 20.8125 11.421875 24.332031 10.449219 28.082031 C 10.386719 28.355469 10.304688 28.625 10.242188 28.875 L 12.0625 28.875 C 12.0625 28.875 12.0625 28.855469 12.0625 28.855469 C 12.082031 28.75 12.125 28.644531 12.144531 28.519531 C 12.164062 28.457031 12.1875 28.375 12.207031 28.3125 C 12.394531 27.605469 12.621094 26.894531 12.847656 26.1875 C 14.234375 22.105469 16.324219 18.355469 19.035156 15.125 C 19.46875 14.605469 19.902344 14.105469 20.378906 13.625 C 20.691406 13.292969 21 12.957031 21.332031 12.644531 C 22.097656 11.894531 22.925781 11.167969 23.773438 10.480469 C 25.074219 9.417969 26.484375 8.4375 27.972656 7.582031 C 31.34375 5.605469 34.945312 4.230469 38.667969 3.5 C 38.957031 3.4375 39.25 3.394531 39.539062 3.332031 C 41.378906 3.019531 43.21875 2.875 45.082031 2.875 C 45.351562 2.875 45.601562 2.875 45.867188 2.894531 C 47.460938 2.9375 49.054688 3.082031 50.628906 3.355469 C 50.9375 3.417969 51.25 3.457031 51.558594 3.519531 C 52.261719 3.667969 52.964844 3.8125 53.648438 4 C 53.667969 4 53.710938 4.019531 53.730469 4.019531 C 53.875 4.0625 54.019531 4.105469 54.164062 4.144531 C 54.828125 4.332031 55.488281 4.542969 56.132812 4.769531 C 56.542969 4.917969 56.9375 5.0625 57.351562 5.230469 C 58.511719 5.6875 59.648438 6.1875 60.722656 6.769531 C 60.828125 6.8125 60.910156 6.875 61.015625 6.9375 C 61.136719 7 61.242188 7.0625 61.367188 7.125 C 61.40625 7.144531 61.46875 7.1875 61.511719 7.207031 C 63.082031 8.082031 64.574219 9.082031 65.957031 10.1875 C 66.042969 10.25 66.125 10.3125 66.207031 10.375 C 66.226562 10.394531 66.25 10.394531 66.25 10.417969 C 66.539062 10.644531 66.828125 10.894531 67.117188 11.144531 C 67.179688 11.1875 67.21875 11.25 67.28125 11.292969 C 67.46875 11.457031 67.675781 11.644531 67.863281 11.8125 C 70.40625 14.144531 72.601562 16.894531 74.378906 19.980469 C 75.621094 22.144531 76.632812 24.4375 77.378906 26.769531 C 77.605469 27.480469 77.8125 28.207031 78 28.9375 L 79.820312 28.9375 C 79.015625 25.457031 77.710938 22.167969 75.929688 19.042969 Z M 75.929688 19.042969 "/>
<path style=" stroke:none;fill-rule:nonzero;fill:rgb(47.843137%,8.627451%,7.450981%);fill-opacity:1;" d="M 75.394531 40 C 75.394531 39.75 75.578125 39.5625 75.828125 39.5625 C 76.074219 39.5625 76.261719 39.75 76.261719 40 C 76.261719 40.230469 76.074219 40.4375 75.828125 40.4375 C 75.601562 40.4375 75.394531 40.230469 75.394531 40 Z M 76.21875 40 C 76.21875 39.792969 76.054688 39.605469 75.847656 39.605469 C 75.640625 39.605469 75.476562 39.792969 75.476562 40 C 75.476562 40.207031 75.640625 40.394531 75.847656 40.394531 C 76.054688 40.394531 76.21875 40.207031 76.21875 40 Z M 75.660156 39.769531 L 75.867188 39.769531 C 75.972656 39.769531 76.035156 39.8125 76.035156 39.917969 C 76.035156 39.980469 75.992188 40.042969 75.929688 40.042969 L 76.054688 40.207031 L 75.953125 40.207031 L 75.847656 40.0625 L 75.765625 40.0625 L 75.765625 40.207031 L 75.683594 40.207031 L 75.683594 39.769531 Z M 75.847656 39.980469 C 75.910156 39.980469 75.929688 39.957031 75.929688 39.917969 C 75.929688 39.875 75.890625 39.855469 75.847656 39.855469 L 75.746094 39.855469 L 75.746094 40 L 75.847656 40 Z M 75.847656 39.980469 "/>
<path style=" stroke:none;fill-rule:nonzero;fill:rgb(46.666667%,5.098039%,16.078432%);fill-opacity:1;" d="M 13.40625 39.5 L 13.882812 39.5 L 13.863281 43.792969 L 13.386719 43.792969 Z M 13.40625 39.5 "/>
<path style=" stroke:none;fill-rule:nonzero;fill:rgb(46.666667%,5.098039%,16.078432%);fill-opacity:1;" d="M 16.097656 39.5 L 16.550781 39.5 L 19.242188 42.9375 L 19.242188 39.5 L 19.71875 39.5 L 19.71875 43.792969 L 19.34375 43.792969 L 16.59375 40.269531 L 16.550781 43.8125 L 16.097656 43.8125 Z M 16.097656 39.5 "/>
<path style=" stroke:none;fill-rule:nonzero;fill:rgb(46.666667%,5.098039%,16.078432%);fill-opacity:1;" d="M 22.984375 39.957031 L 21.558594 39.957031 L 21.558594 39.5 L 24.910156 39.5 L 24.910156 39.9375 L 23.484375 39.9375 L 23.484375 43.792969 L 22.984375 43.792969 Z M 22.984375 39.957031 "/>
<path style=" stroke:none;fill-rule:nonzero;fill:rgb(46.666667%,5.098039%,16.078432%);fill-opacity:1;" d="M 26.773438 39.5 L 29.855469 39.5 L 29.855469 39.9375 L 27.25 39.9375 L 27.25 41.394531 L 29.585938 41.394531 L 29.585938 41.832031 L 27.269531 41.832031 L 27.269531 43.332031 L 29.898438 43.332031 L 29.898438 43.769531 L 26.773438 43.769531 Z M 26.773438 39.5 "/>
<path style=" stroke:none;fill-rule:nonzero;fill:rgb(46.666667%,5.098039%,16.078432%);fill-opacity:1;" d="M 31.800781 39.5 L 33.515625 39.5 C 34.160156 39.5 34.59375 39.644531 34.882812 39.9375 C 35.007812 40.0625 35.191406 40.4375 35.191406 40.730469 C 35.191406 41.4375 34.78125 41.894531 34.035156 42.042969 L 35.339844 43.792969 L 34.738281 43.792969 L 33.496094 42.125 L 32.277344 42.125 L 32.277344 43.792969 L 31.800781 43.792969 Z M 33.476562 41.707031 C 34.386719 41.707031 34.695312 41.292969 34.695312 40.769531 C 34.632812 40.355469 34.449219 39.957031 33.496094 39.957031 L 32.277344 39.957031 L 32.277344 41.6875 Z M 33.476562 41.707031 "/>
<path style=" stroke:none;fill-rule:nonzero;fill:rgb(46.666667%,5.098039%,16.078432%);fill-opacity:1;" d="M 37.160156 39.5 L 37.613281 39.5 L 40.304688 42.957031 L 40.304688 39.5 L 40.78125 39.5 L 40.78125 43.792969 L 40.386719 43.792969 L 37.632812 40.269531 L 37.632812 43.792969 L 37.160156 43.792969 Z M 37.160156 39.5 "/>
<path style=" stroke:none;fill-rule:nonzero;fill:rgb(46.666667%,5.098039%,16.078432%);fill-opacity:1;" d="M 44.503906 39.480469 L 44.957031 39.480469 L 46.902344 43.8125 L 46.386719 43.8125 L 45.890625 42.6875 L 43.550781 42.6875 L 43.054688 43.8125 L 42.558594 43.8125 Z M 45.703125 42.230469 L 44.730469 40.042969 L 43.757812 42.230469 Z M 45.703125 42.230469 "/>
<path style=" stroke:none;fill-rule:nonzero;fill:rgb(46.666667%,5.098039%,16.078432%);fill-opacity:1;" d="M 49.28125 39.957031 L 47.855469 39.957031 L 47.855469 39.5 L 51.207031 39.5 L 51.207031 39.957031 L 49.78125 39.957031 L 49.78125 43.8125 L 49.304688 43.8125 Z M 49.28125 39.957031 "/>
<path style=" stroke:none;fill-rule:nonzero;fill:rgb(46.666667%,5.098039%,16.078432%);fill-opacity:1;" d="M 53.089844 39.5 L 53.566406 39.5 L 53.566406 43.792969 L 53.089844 43.792969 Z M 53.089844 39.5 "/>
<path style=" stroke:none;fill-rule:nonzero;fill:rgb(46.666667%,5.098039%,16.078432%);fill-opacity:1;" d="M 55.59375 41.667969 C 55.59375 40.480469 56.484375 39.4375 57.746094 39.4375 C 59.109375 39.4375 59.957031 40.480469 59.957031 41.644531 C 60 42.9375 58.820312 44.1875 57.226562 43.832031 C 56.339844 43.625 55.613281 42.769531 55.59375 41.667969 Z M 59.441406 41.667969 C 59.441406 40.582031 58.65625 39.875 57.765625 39.894531 C 56.710938 39.917969 56.089844 40.730469 56.089844 41.667969 L 56.089844 41.6875 C 56.089844 42.707031 56.773438 43.25 57.308594 43.417969 C 58.46875 43.6875 59.484375 42.75 59.441406 41.667969 Z M 59.441406 41.667969 "/>
<path style=" stroke:none;fill-rule:nonzero;fill:rgb(46.666667%,5.098039%,16.078432%);fill-opacity:1;" d="M 61.902344 39.5 L 62.359375 39.5 L 65.046875 42.9375 L 65.046875 39.5 L 65.523438 39.5 L 65.523438 43.792969 L 65.132812 43.792969 L 62.378906 40.269531 L 62.378906 43.792969 L 61.902344 43.792969 Z M 61.902344 39.5 "/>
<path style=" stroke:none;fill-rule:nonzero;fill:rgb(46.666667%,5.098039%,16.078432%);fill-opacity:1;" d="M 69.25 39.480469 L 69.703125 39.480469 L 71.648438 43.8125 L 71.132812 43.8125 L 70.613281 42.667969 L 68.296875 42.667969 L 67.78125 43.792969 L 67.28125 43.792969 Z M 70.449219 42.230469 L 69.476562 40.042969 L 68.503906 42.230469 Z M 70.449219 42.230469 "/>
<path style=" stroke:none;fill-rule:nonzero;fill:rgb(46.666667%,5.098039%,16.078432%);fill-opacity:1;" d="M 73.449219 39.5 L 73.925781 39.5 L 73.925781 43.355469 L 76.324219 43.355469 L 76.324219 43.792969 L 73.449219 43.792969 Z M 73.449219 39.5 "/>
<path style=" stroke:none;fill-rule:nonzero;fill:rgb(0%,25.098041%,38.431373%);fill-opacity:1;" d="M 6.164062 32.582031 L 4.097656 32.582031 L 4.097656 31.25 L 9.746094 31.25 L 9.746094 32.582031 L 7.675781 32.582031 L 7.675781 37.8125 L 6.164062 37.8125 Z M 6.164062 32.582031 "/>
<path style=" stroke:none;fill-rule:nonzero;fill:rgb(0%,25.098041%,38.431373%);fill-opacity:1;" d="M 10.304688 34.542969 C 10.304688 32.667969 11.835938 31.125 13.945312 31.125 C 16.054688 31.125 17.566406 32.625 17.566406 34.5 L 17.566406 34.519531 C 17.566406 36.375 16.035156 37.917969 13.925781 37.917969 C 11.8125 37.917969 10.304688 36.417969 10.304688 34.542969 Z M 15.992188 34.542969 C 15.992188 33.394531 15.144531 32.457031 13.925781 32.457031 C 12.722656 32.457031 11.875 33.375 11.875 34.5 L 11.875 34.519531 C 11.875 35.644531 12.722656 36.582031 13.945312 36.582031 C 15.164062 36.582031 15.992188 35.667969 15.992188 34.542969 Z M 15.992188 34.542969 "/>
<path style=" stroke:none;fill-rule:nonzero;fill:rgb(0%,25.098041%,38.431373%);fill-opacity:1;" d="M 20.8125 31.207031 L 22.199219 31.207031 L 25.117188 37.8125 L 23.542969 37.8125 L 22.925781 36.332031 L 20.027344 36.332031 L 19.40625 37.8125 L 17.875 37.8125 Z M 22.386719 35.0625 L 21.476562 32.9375 L 20.566406 35.0625 Z M 22.386719 35.0625 "/>
<path style=" stroke:none;fill-rule:nonzero;fill:rgb(0%,25.098041%,38.431373%);fill-opacity:1;" d="M 25.613281 36.855469 L 26.503906 35.832031 C 27.125 36.3125 27.765625 36.625 28.550781 36.625 C 29.171875 36.625 29.542969 36.394531 29.542969 36 L 29.542969 35.980469 C 29.542969 35.605469 29.316406 35.417969 28.179688 35.144531 C 26.8125 34.8125 25.925781 34.4375 25.925781 33.144531 L 25.925781 33.125 C 25.925781 31.9375 26.917969 31.144531 28.324219 31.144531 C 29.316406 31.144531 30.164062 31.4375 30.867188 31.980469 L 30.082031 33.0625 C 29.484375 32.667969 28.882812 32.417969 28.304688 32.417969 C 27.722656 32.417969 27.433594 32.667969 27.433594 32.980469 L 27.433594 33 C 27.433594 33.4375 27.722656 33.5625 28.902344 33.855469 C 30.289062 34.207031 31.074219 34.6875 31.074219 35.8125 L 31.074219 35.832031 C 31.074219 37.125 30.042969 37.875 28.574219 37.875 C 27.476562 37.894531 26.421875 37.5625 25.613281 36.855469 Z M 25.613281 36.855469 "/>
<path style=" stroke:none;fill-rule:nonzero;fill:rgb(0%,25.098041%,38.431373%);fill-opacity:1;" d="M 33.765625 32.582031 L 31.695312 32.582031 L 31.695312 31.25 L 37.34375 31.25 L 37.34375 32.582031 L 35.277344 32.582031 L 35.277344 37.8125 L 33.765625 37.8125 Z M 33.765625 32.582031 "/>
<path style=" stroke:none;fill-rule:nonzero;fill:rgb(0%,25.098041%,38.431373%);fill-opacity:1;" d="M 38.503906 31.25 L 40.117188 31.25 L 41.917969 34.019531 L 43.71875 31.25 L 45.332031 31.25 L 45.332031 37.8125 L 43.839844 37.8125 L 43.839844 33.542969 L 41.917969 36.332031 L 41.875 36.332031 L 39.972656 33.5625 L 39.972656 37.8125 L 38.503906 37.8125 Z M 38.503906 31.25 "/>
<path style=" stroke:none;fill-rule:nonzero;fill:rgb(0%,25.098041%,38.431373%);fill-opacity:1;" d="M 49.304688 31.207031 L 50.691406 31.207031 L 53.605469 37.8125 L 52.035156 37.8125 L 51.414062 36.332031 L 48.515625 36.332031 L 47.898438 37.8125 L 46.367188 37.8125 Z M 50.875 35.0625 L 49.964844 32.9375 L 49.054688 35.0625 Z M 50.875 35.0625 "/>
<path style=" stroke:none;fill-rule:nonzero;fill:rgb(0%,25.098041%,38.431373%);fill-opacity:1;" d="M 54.101562 36.855469 L 54.992188 35.832031 C 55.613281 36.3125 56.253906 36.625 57.042969 36.625 C 57.660156 36.625 58.035156 36.394531 58.035156 36 L 58.035156 35.980469 C 58.035156 35.605469 57.808594 35.417969 56.667969 35.144531 C 55.304688 34.8125 54.414062 34.4375 54.414062 33.144531 L 54.414062 33.125 C 54.414062 31.9375 55.40625 31.144531 56.8125 31.144531 C 57.808594 31.144531 58.65625 31.4375 59.359375 31.980469 L 58.574219 33.0625 C 57.972656 32.667969 57.371094 32.417969 56.792969 32.417969 C 56.214844 32.417969 55.925781 32.667969 55.925781 32.980469 L 55.925781 33 C 55.925781 33.4375 56.214844 33.5625 57.394531 33.855469 C 58.78125 34.207031 59.566406 34.6875 59.566406 35.8125 L 59.566406 35.832031 C 59.566406 37.125 58.53125 37.875 57.0625 37.875 C 55.964844 37.894531 54.929688 37.5625 54.101562 36.855469 Z M 54.101562 36.855469 "/>
<path style=" stroke:none;fill-rule:nonzero;fill:rgb(0%,25.098041%,38.431373%);fill-opacity:1;" d="M 62.253906 32.582031 L 60.1875 32.582031 L 60.1875 31.25 L 65.835938 31.25 L 65.835938 32.582031 L 63.765625 32.582031 L 63.765625 37.8125 L 62.253906 37.8125 Z M 62.253906 32.582031 "/>
<path style=" stroke:none;fill-rule:nonzero;fill:rgb(0%,25.098041%,38.431373%);fill-opacity:1;" d="M 66.992188 31.25 L 72.144531 31.25 L 72.144531 32.542969 L 68.484375 32.542969 L 68.484375 33.875 L 71.710938 33.875 L 71.710938 35.167969 L 68.484375 35.167969 L 68.484375 36.542969 L 72.1875 36.542969 L 72.1875 37.832031 L 66.992188 37.832031 Z M 66.992188 31.25 "/>
<path style=" stroke:none;fill-rule:nonzero;fill:rgb(0%,25.098041%,38.431373%);fill-opacity:1;" d="M 73.53125 31.25 L 76.65625 31.25 C 77.523438 31.25 78.1875 31.480469 78.640625 31.917969 C 79.015625 32.292969 79.21875 32.792969 79.21875 33.417969 L 79.21875 33.4375 C 79.21875 34.5 78.621094 35.167969 77.75 35.480469 L 79.425781 37.8125 L 77.667969 37.8125 L 76.199219 35.707031 L 75.019531 35.707031 L 75.019531 37.8125 L 73.511719 37.8125 L 73.511719 31.25 Z M 76.550781 34.4375 C 77.277344 34.4375 77.710938 34.0625 77.710938 33.519531 L 77.710938 33.5 C 77.710938 32.875 77.253906 32.5625 76.53125 32.5625 L 75.042969 32.5625 L 75.042969 34.4375 Z M 76.550781 34.4375 "/>
<path style=" stroke:none;fill-rule:nonzero;fill:rgb(0%,25.098041%,38.431373%);fill-opacity:1;" d="M 80.109375 36.855469 L 81 35.832031 C 81.621094 36.3125 82.261719 36.625 83.046875 36.625 C 83.667969 36.625 84.042969 36.394531 84.042969 36 L 84.042969 35.980469 C 84.042969 35.605469 83.8125 35.417969 82.675781 35.144531 C 81.308594 34.8125 80.421875 34.4375 80.421875 33.144531 L 80.421875 33.125 C 80.421875 31.9375 81.414062 31.144531 82.820312 31.144531 C 83.8125 31.144531 84.660156 31.4375 85.367188 31.980469 L 84.578125 33.0625 C 83.980469 32.667969 83.378906 32.417969 82.800781 32.417969 C 82.21875 32.417969 81.929688 32.667969 81.929688 32.980469 L 81.929688 33 C 81.929688 33.4375 82.21875 33.5625 83.398438 33.855469 C 84.785156 34.207031 85.574219 34.6875 85.574219 35.8125 L 85.574219 35.832031 C 85.574219 37.125 84.539062 37.875 83.070312 37.875 C 81.972656 37.894531 80.9375 37.5625 80.109375 36.855469 Z M 80.109375 36.855469 "/>
</g>
</svg>
