<?xml version="1.0" encoding="UTF-8"?>
<svg xmlns="http://www.w3.org/2000/svg" xmlns:xlink="http://www.w3.org/1999/xlink" width="68px" height="56px" viewBox="0 0 67 56" version="1.1">
<defs>
<linearGradient id="linear0" gradientUnits="userSpaceOnUse" x1="-71.433197" y1="311.645111" x2="267.252289" y2="311.645111" gradientTransform="matrix(0.152331,0,0,0.155555,0.368132,0)">
<stop offset="0" style="stop-color:rgb(100%,100%,100%);stop-opacity:1;"/>
<stop offset="1" style="stop-color:rgb(0%,25.098039%,38.431373%);stop-opacity:1;"/>
</linearGradient>
<linearGradient id="linear1" gradientUnits="userSpaceOnUse" x1="-71.433197" y1="323.067413" x2="267.252289" y2="323.067413" gradientTransform="matrix(0.152331,0,0,0.155555,0.368132,0)">
<stop offset="0" style="stop-color:rgb(100%,100%,100%);stop-opacity:1;"/>
<stop offset="1" style="stop-color:rgb(0%,25.098039%,38.431373%);stop-opacity:1;"/>
</linearGradient>
<linearGradient id="linear2" gradientUnits="userSpaceOnUse" x1="-71.433197" y1="283.068512" x2="267.252289" y2="283.068512" gradientTransform="matrix(0.152331,0,0,0.155555,0.368132,0)">
<stop offset="0" style="stop-color:rgb(100%,100%,100%);stop-opacity:1;"/>
<stop offset="1" style="stop-color:rgb(0%,25.098039%,38.431373%);stop-opacity:1;"/>
</linearGradient>
<linearGradient id="linear3" gradientUnits="userSpaceOnUse" x1="-71.433197" y1="259.761597" x2="267.252289" y2="259.761597" gradientTransform="matrix(0.152331,0,0,0.155555,0.368132,0)">
<stop offset="0" style="stop-color:rgb(100%,100%,100%);stop-opacity:1;"/>
<stop offset="1" style="stop-color:rgb(0%,25.098039%,38.431373%);stop-opacity:1;"/>
</linearGradient>
<linearGradient id="linear4" gradientUnits="userSpaceOnUse" x1="-71.433197" y1="239.183807" x2="267.252289" y2="239.183807" gradientTransform="matrix(0.152331,0,0,0.155555,0.368132,0)">
<stop offset="0" style="stop-color:rgb(100%,100%,100%);stop-opacity:1;"/>
<stop offset="1" style="stop-color:rgb(0%,25.098039%,38.431373%);stop-opacity:1;"/>
</linearGradient>
<linearGradient id="linear5" gradientUnits="userSpaceOnUse" x1="-71.433197" y1="301.358704" x2="267.252289" y2="301.358704" gradientTransform="matrix(0.152331,0,0,0.155555,0.368132,0)">
<stop offset="0" style="stop-color:rgb(100%,100%,100%);stop-opacity:1;"/>
<stop offset="1" style="stop-color:rgb(0%,25.098039%,38.431373%);stop-opacity:1;"/>
</linearGradient>
<linearGradient id="linear6" gradientUnits="userSpaceOnUse" x1="-71.433197" y1="321.437988" x2="267.252289" y2="321.437988" gradientTransform="matrix(0.152331,0,0,0.155555,0.368132,0)">
<stop offset="0" style="stop-color:rgb(100%,100%,100%);stop-opacity:1;"/>
<stop offset="1" style="stop-color:rgb(0%,25.098039%,38.431373%);stop-opacity:1;"/>
</linearGradient>
<linearGradient id="linear7" gradientUnits="userSpaceOnUse" x1="-71.433197" y1="227.772903" x2="267.252289" y2="227.772903" gradientTransform="matrix(0.152331,0,0,0.155555,0.368132,0)">
<stop offset="0" style="stop-color:rgb(100%,100%,100%);stop-opacity:1;"/>
<stop offset="1" style="stop-color:rgb(0%,25.098039%,38.431373%);stop-opacity:1;"/>
</linearGradient>
<linearGradient id="linear8" gradientUnits="userSpaceOnUse" x1="-71.433197" y1="77.563599" x2="267.252289" y2="77.563599" gradientTransform="matrix(0.152331,0,0,0.155555,0.368132,0)">
<stop offset="0" style="stop-color:rgb(100%,100%,100%);stop-opacity:1;"/>
<stop offset="1" style="stop-color:rgb(0%,25.098039%,38.431373%);stop-opacity:1;"/>
</linearGradient>
<linearGradient id="linear9" gradientUnits="userSpaceOnUse" x1="-71.433197" y1="88.881699" x2="267.252289" y2="88.881699" gradientTransform="matrix(0.152331,0,0,0.155555,0.368132,0)">
<stop offset="0" style="stop-color:rgb(100%,100%,100%);stop-opacity:1;"/>
<stop offset="1" style="stop-color:rgb(0%,25.098039%,38.431373%);stop-opacity:1;"/>
</linearGradient>
<linearGradient id="linear10" gradientUnits="userSpaceOnUse" x1="-71.433197" y1="100.621498" x2="267.252289" y2="100.621498" gradientTransform="matrix(0.152331,0,0,0.155555,0.368132,0)">
<stop offset="0" style="stop-color:rgb(100%,100%,100%);stop-opacity:1;"/>
<stop offset="1" style="stop-color:rgb(0%,25.098039%,38.431373%);stop-opacity:1;"/>
</linearGradient>
<linearGradient id="linear11" gradientUnits="userSpaceOnUse" x1="-71.433197" y1="44.326599" x2="267.252289" y2="44.326599" gradientTransform="matrix(0.152331,0,0,0.155555,0.368132,0)">
<stop offset="0" style="stop-color:rgb(100%,100%,100%);stop-opacity:1;"/>
<stop offset="1" style="stop-color:rgb(0%,25.098039%,38.431373%);stop-opacity:1;"/>
</linearGradient>
<linearGradient id="linear12" gradientUnits="userSpaceOnUse" x1="-71.433197" y1="228.643005" x2="267.252289" y2="228.643005" gradientTransform="matrix(0.152331,0,0,0.155555,0.368132,0)">
<stop offset="0" style="stop-color:rgb(100%,100%,100%);stop-opacity:1;"/>
<stop offset="1" style="stop-color:rgb(0%,25.098039%,38.431373%);stop-opacity:1;"/>
</linearGradient>
<linearGradient id="linear13" gradientUnits="userSpaceOnUse" x1="-71.433197" y1="137.594696" x2="267.252289" y2="137.594696" gradientTransform="matrix(0.152331,0,0,0.155555,0.368132,0)">
<stop offset="0" style="stop-color:rgb(100%,100%,100%);stop-opacity:1;"/>
<stop offset="1" style="stop-color:rgb(0%,25.098039%,38.431373%);stop-opacity:1;"/>
</linearGradient>
<linearGradient id="linear14" gradientUnits="userSpaceOnUse" x1="-71.433197" y1="132.791901" x2="267.252289" y2="132.791901" gradientTransform="matrix(0.152331,0,0,0.155555,0.368132,0)">
<stop offset="0" style="stop-color:rgb(100%,100%,100%);stop-opacity:1;"/>
<stop offset="1" style="stop-color:rgb(0%,25.098039%,38.431373%);stop-opacity:1;"/>
</linearGradient>
<linearGradient id="linear15" gradientUnits="userSpaceOnUse" x1="-71.433197" y1="19.0497" x2="267.252289" y2="19.0497" gradientTransform="matrix(0.152331,0,0,0.155555,0.368132,0)">
<stop offset="0" style="stop-color:rgb(100%,100%,100%);stop-opacity:1;"/>
<stop offset="1" style="stop-color:rgb(0%,25.098039%,38.431373%);stop-opacity:1;"/>
</linearGradient>
<linearGradient id="linear16" gradientUnits="userSpaceOnUse" x1="-71.433197" y1="99.155998" x2="267.252289" y2="99.155998" gradientTransform="matrix(0.152331,0,0,0.155555,0.368132,0)">
<stop offset="0" style="stop-color:rgb(100%,100%,100%);stop-opacity:1;"/>
<stop offset="1" style="stop-color:rgb(0%,25.098039%,38.431373%);stop-opacity:1;"/>
</linearGradient>
<linearGradient id="linear17" gradientUnits="userSpaceOnUse" x1="-71.433197" y1="132.9814" x2="267.252289" y2="132.9814" gradientTransform="matrix(0.152331,0,0,0.155555,0.368132,0)">
<stop offset="0" style="stop-color:rgb(100%,100%,100%);stop-opacity:1;"/>
<stop offset="1" style="stop-color:rgb(0%,25.098039%,38.431373%);stop-opacity:1;"/>
</linearGradient>
<linearGradient id="linear18" gradientUnits="userSpaceOnUse" x1="-71.433197" y1="28.693001" x2="267.252289" y2="28.693001" gradientTransform="matrix(0.152331,0,0,0.155555,0.368132,0)">
<stop offset="0" style="stop-color:rgb(100%,100%,100%);stop-opacity:1;"/>
<stop offset="1" style="stop-color:rgb(0%,25.098039%,38.431373%);stop-opacity:1;"/>
</linearGradient>
<linearGradient id="linear19" gradientUnits="userSpaceOnUse" x1="-71.433197" y1="38.338501" x2="267.252289" y2="38.338501" gradientTransform="matrix(0.152331,0,0,0.155555,0.368132,0)">
<stop offset="0" style="stop-color:rgb(100%,100%,100%);stop-opacity:1;"/>
<stop offset="1" style="stop-color:rgb(0%,25.098039%,38.431373%);stop-opacity:1;"/>
</linearGradient>
<linearGradient id="linear20" gradientUnits="userSpaceOnUse" x1="-71.433197" y1="74.732399" x2="267.252289" y2="74.732399" gradientTransform="matrix(0.152331,0,0,0.155555,0.368132,0)">
<stop offset="0" style="stop-color:rgb(100%,100%,100%);stop-opacity:1;"/>
<stop offset="1" style="stop-color:rgb(0%,25.098039%,38.431373%);stop-opacity:1;"/>
</linearGradient>
<linearGradient id="linear21" gradientUnits="userSpaceOnUse" x1="-71.433197" y1="222.8918" x2="267.252289" y2="222.8918" gradientTransform="matrix(0.152331,0,0,0.155555,0.368132,0)">
<stop offset="0" style="stop-color:rgb(100%,100%,100%);stop-opacity:1;"/>
<stop offset="1" style="stop-color:rgb(0%,25.098039%,38.431373%);stop-opacity:1;"/>
</linearGradient>
<linearGradient id="linear22" gradientUnits="userSpaceOnUse" x1="-71.433197" y1="33.513802" x2="267.252289" y2="33.513802" gradientTransform="matrix(0.152331,0,0,0.155555,0.368132,0)">
<stop offset="0" style="stop-color:rgb(100%,100%,100%);stop-opacity:1;"/>
<stop offset="1" style="stop-color:rgb(0%,25.098039%,38.431373%);stop-opacity:1;"/>
</linearGradient>
<linearGradient id="linear23" gradientUnits="userSpaceOnUse" x1="-71.433197" y1="40.833302" x2="267.252289" y2="40.833302" gradientTransform="matrix(0.152331,0,0,0.155555,0.368132,0)">
<stop offset="0" style="stop-color:rgb(100%,100%,100%);stop-opacity:1;"/>
<stop offset="1" style="stop-color:rgb(0%,25.098039%,38.431373%);stop-opacity:1;"/>
</linearGradient>
<linearGradient id="linear24" gradientUnits="userSpaceOnUse" x1="-71.433197" y1="242.998001" x2="267.252289" y2="242.998001" gradientTransform="matrix(0.152331,0,0,0.155555,0.368132,0)">
<stop offset="0" style="stop-color:rgb(100%,100%,100%);stop-opacity:1;"/>
<stop offset="1" style="stop-color:rgb(0%,25.098039%,38.431373%);stop-opacity:1;"/>
</linearGradient>
<linearGradient id="linear25" gradientUnits="userSpaceOnUse" x1="-71.433197" y1="283.2099" x2="267.252289" y2="283.2099" gradientTransform="matrix(0.152331,0,0,0.155555,0.368132,0)">
<stop offset="0" style="stop-color:rgb(100%,100%,100%);stop-opacity:1;"/>
<stop offset="1" style="stop-color:rgb(0%,25.098039%,38.431373%);stop-opacity:1;"/>
</linearGradient>
<linearGradient id="linear26" gradientUnits="userSpaceOnUse" x1="-71.433197" y1="259.695709" x2="267.252289" y2="259.695709" gradientTransform="matrix(0.152331,0,0,0.155555,0.368132,0)">
<stop offset="0" style="stop-color:rgb(100%,100%,100%);stop-opacity:1;"/>
<stop offset="1" style="stop-color:rgb(0%,25.098039%,38.431373%);stop-opacity:1;"/>
</linearGradient>
<linearGradient id="linear27" gradientUnits="userSpaceOnUse" x1="-71.433197" y1="227.430893" x2="267.252289" y2="227.430893" gradientTransform="matrix(0.152331,0,0,0.155555,0.368132,0)">
<stop offset="0" style="stop-color:rgb(100%,100%,100%);stop-opacity:1;"/>
<stop offset="1" style="stop-color:rgb(0%,25.098039%,38.431373%);stop-opacity:1;"/>
</linearGradient>
<linearGradient id="linear28" gradientUnits="userSpaceOnUse" x1="-71.433197" y1="270.773804" x2="267.252289" y2="270.773804" gradientTransform="matrix(0.152331,0,0,0.155555,0.368132,0)">
<stop offset="0" style="stop-color:rgb(100%,100%,100%);stop-opacity:1;"/>
<stop offset="1" style="stop-color:rgb(0%,25.098039%,38.431373%);stop-opacity:1;"/>
</linearGradient>
<linearGradient id="linear29" gradientUnits="userSpaceOnUse" x1="-71.433197" y1="109.697403" x2="267.252289" y2="109.697403" gradientTransform="matrix(0.152331,0,0,0.155555,0.368132,0)">
<stop offset="0" style="stop-color:rgb(100%,100%,100%);stop-opacity:1;"/>
<stop offset="1" style="stop-color:rgb(0%,25.098039%,38.431373%);stop-opacity:1;"/>
</linearGradient>
<linearGradient id="linear30" gradientUnits="userSpaceOnUse" x1="-71.433197" y1="118.9533" x2="267.252289" y2="118.9533" gradientTransform="matrix(0.152331,0,0,0.155555,0.368132,0)">
<stop offset="0" style="stop-color:rgb(100%,100%,100%);stop-opacity:1;"/>
<stop offset="1" style="stop-color:rgb(0%,25.098039%,38.431373%);stop-opacity:1;"/>
</linearGradient>
<linearGradient id="linear31" gradientUnits="userSpaceOnUse" x1="-71.433197" y1="43.867599" x2="267.252289" y2="43.867599" gradientTransform="matrix(0.152331,0,0,0.155555,0.368132,0)">
<stop offset="0" style="stop-color:rgb(100%,100%,100%);stop-opacity:1;"/>
<stop offset="1" style="stop-color:rgb(0%,25.098039%,38.431373%);stop-opacity:1;"/>
</linearGradient>
<linearGradient id="linear32" gradientUnits="userSpaceOnUse" x1="-71.433197" y1="87.848801" x2="267.252289" y2="87.848801" gradientTransform="matrix(0.152331,0,0,0.155555,0.368132,0)">
<stop offset="0" style="stop-color:rgb(100%,100%,100%);stop-opacity:1;"/>
<stop offset="1" style="stop-color:rgb(0%,25.098039%,38.431373%);stop-opacity:1;"/>
</linearGradient>
<linearGradient id="linear33" gradientUnits="userSpaceOnUse" x1="-71.433197" y1="117.5177" x2="267.252289" y2="117.5177" gradientTransform="matrix(0.152331,0,0,0.155555,0.368132,0)">
<stop offset="0" style="stop-color:rgb(100%,100%,100%);stop-opacity:1;"/>
<stop offset="1" style="stop-color:rgb(0%,25.098039%,38.431373%);stop-opacity:1;"/>
</linearGradient>
<linearGradient id="linear34" gradientUnits="userSpaceOnUse" x1="-71.433197" y1="61.863899" x2="267.252289" y2="61.863899" gradientTransform="matrix(0.152331,0,0,0.155555,0.368132,0)">
<stop offset="0" style="stop-color:rgb(100%,100%,100%);stop-opacity:1;"/>
<stop offset="1" style="stop-color:rgb(0%,25.098039%,38.431373%);stop-opacity:1;"/>
</linearGradient>
<linearGradient id="linear35" gradientUnits="userSpaceOnUse" x1="-71.433197" y1="249.564697" x2="267.252289" y2="249.564697" gradientTransform="matrix(0.152331,0,0,0.155555,0.368132,0)">
<stop offset="0" style="stop-color:rgb(100%,100%,100%);stop-opacity:1;"/>
<stop offset="1" style="stop-color:rgb(0%,25.098039%,38.431373%);stop-opacity:1;"/>
</linearGradient>
<linearGradient id="linear36" gradientUnits="userSpaceOnUse" x1="-71.433197" y1="133.355606" x2="267.252289" y2="133.355606" gradientTransform="matrix(0.152331,0,0,0.155555,0.368132,0)">
<stop offset="0" style="stop-color:rgb(100%,100%,100%);stop-opacity:1;"/>
<stop offset="1" style="stop-color:rgb(0%,25.098039%,38.431373%);stop-opacity:1;"/>
</linearGradient>
</defs>
<g id="surface1">
<path style=" stroke:none;fill-rule:nonzero;fill:rgb(46.666667%,5.098039%,16.078432%);fill-opacity:1;" d="M 59.867188 20.535156 C 56.667969 8.679688 46.050781 -0.015625 33.441406 -0.015625 C 20.8125 -0.015625 10.191406 8.679688 6.996094 20.535156 L 0.398438 20.535156 L 0.398438 35.621094 L 7.039062 35.621094 C 10.285156 47.382812 20.871094 56.015625 33.441406 56.015625 C 46.003906 56.015625 56.59375 47.382812 59.839844 35.621094 L 66.539062 35.621094 L 66.539062 20.535156 Z M 65.503906 34.59375 L 58.984375 34.59375 C 58.96875 34.625 58.96875 34.660156 58.957031 34.6875 C 57.160156 41.660156 52.800781 47.492188 46.722656 51.148438 C 42.625 53.605469 38.070312 54.847656 33.46875 54.847656 C 31.230469 54.847656 28.976562 54.554688 26.753906 53.945312 C 19.957031 52.113281 14.277344 47.679688 10.742188 41.441406 C 9.507812 39.261719 8.59375 36.960938 8 34.59375 L 1.402344 34.59375 L 1.402344 21.558594 L 7.910156 21.558594 C 7.957031 21.359375 8 21.15625 8.0625 20.96875 C 9.859375 14 14.214844 8.152344 20.292969 4.511719 C 26.386719 0.871094 33.46875 -0.125 40.265625 1.695312 C 47.058594 3.53125 52.742188 7.964844 56.273438 14.203125 C 57.597656 16.535156 58.542969 18.992188 59.136719 21.546875 L 65.503906 21.546875 Z M 65.503906 34.59375 "/>
<path style=" stroke:none;fill-rule:nonzero;fill:url(#linear0);" d="M 27.664062 52.828125 C 27.910156 52.828125 28.152344 52.8125 28.398438 52.734375 C 28.808594 52.625 29.234375 52.421875 29.679688 52.125 C 30.4375 51.628906 31.199219 50.898438 32.023438 49.886719 C 32.691406 49.078125 33.347656 48.128906 34.03125 47.007812 C 34.09375 46.914062 34.15625 46.808594 34.214844 46.714844 L 34.261719 46.632812 C 32.464844 46.308594 30.605469 45.886719 28.746094 45.421875 C 27.164062 45.019531 25.609375 44.582031 24.132812 44.113281 C 24.160156 45.453125 24.253906 46.632812 24.421875 47.738281 C 24.617188 49.015625 24.910156 50.042969 25.304688 50.867188 C 25.578125 51.457031 26.050781 52.1875 26.734375 52.5625 C 26.859375 52.59375 26.964844 52.625 27.085938 52.65625 C 27.269531 52.734375 27.46875 52.78125 27.664062 52.828125 Z M 27.664062 52.828125 "/>
<path style=" stroke:none;fill-rule:nonzero;fill:url(#linear1);" d="M 46.066406 49.996094 C 47.527344 49.125 48.886719 48.113281 50.136719 46.980469 C 49.875 47.085938 49.601562 47.179688 49.28125 47.273438 C 48.445312 47.492188 47.527344 47.613281 46.339844 47.691406 C 45.0625 47.753906 43.722656 47.753906 42.242188 47.660156 C 42.195312 47.707031 42.167969 47.738281 42.121094 47.785156 C 42.0625 47.867188 41.984375 47.925781 41.925781 48.003906 C 39.730469 50.246094 37.386719 51.859375 34.945312 52.828125 C 34.203125 53.121094 33.453125 53.355469 32.691406 53.511719 C 37.320312 53.667969 41.9375 52.46875 46.066406 49.996094 Z M 46.066406 49.996094 "/>
<path style=" stroke:none;fill-rule:nonzero;fill:url(#linear2);" d="M 21.511719 50.414062 C 21.039062 49.980469 20.597656 49.511719 20.171875 49 C 18.464844 46.945312 17.109375 44.273438 16.253906 41.285156 C 16.242188 41.253906 16.242188 41.222656 16.226562 41.191406 L 16.210938 41.128906 C 14.628906 40.398438 13.285156 39.667969 12.097656 38.90625 C 11.410156 38.453125 10.847656 38.046875 10.363281 37.644531 C 10.789062 38.71875 11.292969 39.761719 11.871094 40.773438 C 14.199219 44.90625 17.535156 48.207031 21.511719 50.414062 Z M 21.511719 50.414062 "/>
<path style=" stroke:none;fill-rule:nonzero;fill:url(#linear3);" d="M 56.808594 35.714844 C 56.242188 35.980469 55.632812 36.105469 55.175781 36.199219 C 54.214844 36.367188 53.179688 36.460938 51.824219 36.480469 C 50.941406 36.480469 50.042969 36.460938 49.066406 36.398438 C 48.535156 37.832031 47.910156 39.214844 47.238281 40.519531 C 47.542969 40.707031 47.820312 40.878906 48.0625 41.035156 C 49.066406 41.707031 49.796875 42.265625 50.421875 42.886719 C 50.851562 43.308594 51.140625 43.679688 51.367188 44.066406 C 51.566406 44.410156 51.78125 44.925781 51.6875 45.453125 C 54.324219 42.605469 56.289062 39.167969 57.445312 35.339844 C 57.246094 35.480469 57.050781 35.605469 56.808594 35.714844 Z M 56.808594 35.714844 "/>
<path style=" stroke:none;fill-rule:nonzero;fill:url(#linear4);" d="M 9.539062 35.125 C 9.734375 35.453125 10.011719 35.808594 10.390625 36.179688 C 10.96875 36.757812 11.683594 37.320312 12.644531 37.953125 C 13.605469 38.59375 14.671875 39.199219 15.890625 39.820312 C 15.511719 38.140625 15.28125 36.398438 15.175781 34.613281 L 9.339844 34.613281 C 9.371094 34.707031 9.386719 34.796875 9.417969 34.890625 C 9.449219 34.953125 9.492188 35.046875 9.539062 35.125 Z M 9.539062 35.125 "/>
<path style=" stroke:none;fill-rule:nonzero;fill:url(#linear5);" d="M 24.890625 51.300781 C 24.453125 50.433594 24.117188 49.359375 23.875 48.019531 C 23.675781 46.933594 23.550781 45.765625 23.492188 44.410156 C 23.492188 44.300781 23.492188 44.207031 23.476562 44.101562 C 23.476562 44.039062 23.476562 43.992188 23.476562 43.929688 C 21.3125 43.226562 19.332031 42.5 17.429688 41.6875 C 17.382812 41.671875 17.335938 41.660156 17.308594 41.625 C 17.277344 41.613281 17.230469 41.59375 17.203125 41.578125 C 17.992188 44.285156 19.152344 46.605469 20.625 48.453125 C 21.496094 49.546875 22.457031 50.460938 23.503906 51.191406 C 23.828125 51.410156 24.160156 51.628906 24.511719 51.816406 C 24.816406 51.941406 25.121094 52.046875 25.441406 52.160156 C 25.242188 51.90625 25.0625 51.628906 24.890625 51.300781 Z M 24.890625 51.300781 "/>
<path style=" stroke:none;fill-rule:nonzero;fill:url(#linear6);" d="M 30.867188 53.277344 C 32.144531 53.199219 33.453125 52.921875 34.734375 52.421875 C 37.140625 51.519531 39.53125 49.917969 41.652344 47.800781 C 41.695312 47.753906 41.738281 47.707031 41.785156 47.660156 C 41.804688 47.648438 41.804688 47.648438 41.816406 47.632812 C 41.347656 47.601562 40.875 47.554688 40.398438 47.507812 C 38.542969 47.320312 36.578125 47.054688 34.597656 46.699219 C 33.835938 48.050781 33.074219 49.1875 32.296875 50.179688 C 31.457031 51.238281 30.667969 52.019531 29.890625 52.5625 C 29.570312 52.78125 29.25 52.953125 28.945312 53.09375 C 29.339844 53.167969 29.753906 53.230469 30.148438 53.292969 C 30.394531 53.292969 30.636719 53.292969 30.867188 53.277344 Z M 30.867188 53.277344 "/>
<path style=" stroke:none;fill-rule:nonzero;fill:url(#linear7);" d="M 49.691406 34.59375 C 49.523438 35.125 49.339844 35.652344 49.160156 36.167969 C 50.058594 36.226562 50.878906 36.261719 51.6875 36.261719 C 53.042969 36.246094 54.0625 36.167969 55.011719 35.996094 C 55.679688 35.871094 56.164062 35.730469 56.609375 35.527344 C 56.898438 35.386719 57.125 35.246094 57.3125 35.09375 C 57.417969 35 57.523438 34.890625 57.582031 34.765625 C 57.597656 34.707031 57.613281 34.640625 57.628906 34.59375 Z M 49.691406 34.59375 "/>
<path style=" stroke:none;fill-rule:nonzero;fill:rgb(100%,92.156863%,53.333336%);fill-opacity:1;" d="M 58.832031 34.59375 L 57.644531 34.59375 C 57.628906 34.660156 57.613281 34.71875 57.597656 34.765625 C 57.550781 34.953125 57.492188 35.15625 57.429688 35.339844 C 56.289062 39.167969 54.308594 42.605469 51.671875 45.453125 C 51.183594 45.980469 50.667969 46.496094 50.136719 46.980469 C 48.902344 48.113281 47.527344 49.125 46.066406 49.996094 C 41.9375 52.46875 37.320312 53.652344 32.675781 53.511719 C 31.839844 53.480469 30.988281 53.417969 30.148438 53.292969 C 29.753906 53.230469 29.339844 53.167969 28.945312 53.09375 C 28.519531 53.011719 28.09375 52.921875 27.664062 52.8125 C 27.46875 52.765625 27.269531 52.71875 27.085938 52.65625 C 26.964844 52.625 26.859375 52.59375 26.734375 52.5625 C 26.308594 52.4375 25.882812 52.296875 25.457031 52.160156 C 25.152344 52.046875 24.832031 51.941406 24.527344 51.816406 C 23.492188 51.410156 22.46875 50.929688 21.511719 50.398438 C 17.535156 48.191406 14.214844 44.894531 11.871094 40.773438 C 11.292969 39.761719 10.789062 38.71875 10.363281 37.644531 C 9.996094 36.742188 9.675781 35.808594 9.417969 34.875 C 9.386719 34.78125 9.355469 34.6875 9.339844 34.59375 L 8 34.59375 C 8.59375 36.960938 9.507812 39.261719 10.742188 41.441406 C 14.277344 47.679688 19.957031 52.125 26.753906 53.945312 C 28.976562 54.554688 31.230469 54.847656 33.46875 54.847656 C 38.070312 54.847656 42.625 53.589844 46.722656 51.148438 C 52.816406 47.507812 57.160156 41.660156 58.957031 34.6875 C 58.96875 34.660156 58.96875 34.625 58.984375 34.59375 Z M 58.832031 34.59375 "/>
<path style=" stroke:none;fill-rule:nonzero;fill:url(#linear8);" d="M 49.007812 14.421875 C 49.464844 14.621094 49.921875 14.839844 50.378906 15.074219 L 50.363281 15.011719 C 50.332031 14.886719 50.300781 14.746094 50.253906 14.621094 C 49.675781 12.585938 48.886719 10.71875 47.878906 9.066406 C 47.5 9.179688 47.089844 9.253906 46.585938 9.320312 C 45.746094 9.394531 44.835938 9.394531 43.796875 9.320312 C 43.691406 9.320312 43.601562 9.300781 43.496094 9.285156 L 43.476562 9.285156 C 43.570312 10.207031 43.613281 11.183594 43.613281 12.226562 C 45.472656 12.894531 47.300781 13.640625 49.007812 14.421875 Z M 49.007812 14.421875 "/>
<path style=" stroke:none;fill-rule:nonzero;fill:url(#linear9);" d="M 49.113281 8.074219 C 49.035156 8.386719 48.808594 8.585938 48.625 8.710938 C 48.519531 8.789062 48.398438 8.851562 48.246094 8.914062 C 49.21875 10.578125 49.996094 12.472656 50.5625 14.558594 C 50.605469 14.746094 50.652344 14.917969 50.699219 15.105469 L 50.726562 15.246094 C 52.054688 15.914062 53.195312 16.566406 54.261719 17.253906 C 55.28125 17.921875 56.011719 18.496094 56.625 19.101562 C 56.914062 19.398438 57.160156 19.660156 57.339844 19.941406 C 56.789062 18.199219 56.058594 16.503906 55.128906 14.871094 C 53.820312 12.566406 52.207031 10.515625 50.332031 8.773438 C 50.195312 8.648438 50.042969 8.507812 49.90625 8.386719 C 49.859375 8.351562 49.832031 8.308594 49.785156 8.273438 C 49.570312 8.089844 49.359375 7.902344 49.144531 7.730469 C 49.128906 7.714844 49.113281 7.714844 49.113281 7.699219 C 49.144531 7.839844 49.144531 7.964844 49.113281 8.074219 Z M 49.113281 8.074219 "/>
<path style=" stroke:none;fill-rule:nonzero;fill:url(#linear10);" d="M 32.769531 9.738281 C 32.371094 10.453125 31.992188 11.214844 31.582031 12.039062 C 30.605469 14.0625 29.691406 16.285156 28.792969 18.851562 C 28.792969 18.867188 28.777344 18.886719 28.777344 18.898438 C 28.777344 18.898438 28.777344 18.914062 28.777344 18.914062 C 30.757812 19.648438 32.828125 20.332031 34.945312 20.9375 C 35.707031 21.15625 36.457031 21.359375 37.167969 21.546875 L 42.5625 21.546875 C 42.898438 19.304688 43.125 17.125 43.21875 15.074219 C 43.265625 14.21875 43.277344 13.332031 43.265625 12.445312 C 41.464844 11.851562 39.609375 11.324219 37.566406 10.792969 C 35.96875 10.40625 34.367188 10.046875 32.769531 9.738281 Z M 32.769531 9.738281 "/>
<path style=" stroke:none;fill-rule:nonzero;fill:url(#linear11);" d="M 46.828125 6.859375 C 47.300781 7.453125 47.742188 8.089844 48.152344 8.773438 C 48.292969 8.710938 48.414062 8.648438 48.503906 8.585938 C 48.671875 8.480469 48.886719 8.292969 48.960938 8.011719 C 48.992188 7.871094 48.992188 7.730469 48.945312 7.558594 C 47.910156 6.734375 46.8125 5.988281 45.671875 5.335938 C 45.640625 5.320312 45.59375 5.289062 45.566406 5.273438 C 45.472656 5.226562 45.398438 5.179688 45.304688 5.132812 C 45.226562 5.101562 45.167969 5.054688 45.09375 5.027344 C 45.71875 5.566406 46.296875 6.191406 46.828125 6.859375 Z M 46.828125 6.859375 "/>
<path style=" stroke:none;fill-rule:nonzero;fill:url(#linear12);" d="M 39.289062 35.15625 C 38.359375 34.984375 37.414062 34.796875 36.472656 34.59375 L 33.210938 34.59375 C 35.160156 35.203125 37.050781 35.839844 38.816406 36.527344 C 38.984375 36.089844 39.136719 35.640625 39.289062 35.15625 Z M 39.289062 35.15625 "/>
<path style=" stroke:none;fill-rule:nonzero;fill:url(#linear13);" d="M 27.910156 21.558594 L 29.585938 21.558594 C 29.050781 21.453125 28.53125 21.339844 28 21.246094 C 27.96875 21.359375 27.941406 21.453125 27.910156 21.558594 Z M 27.910156 21.558594 "/>
<path style=" stroke:none;fill-rule:nonzero;fill:url(#linear14);" d="M 34.613281 21.558594 C 32.433594 21 30.4375 20.40625 28.488281 19.753906 L 28.445312 19.894531 C 28.367188 20.128906 28.292969 20.347656 28.214844 20.578125 C 29.570312 20.875 30.925781 21.203125 32.328125 21.574219 L 34.613281 21.574219 Z M 34.613281 21.558594 "/>
<path style=" stroke:none;fill-rule:nonzero;fill:url(#linear15);" d="M 29.433594 3.253906 C 29.523438 3.421875 29.644531 3.59375 29.8125 3.792969 C 29.8125 3.792969 29.8125 3.792969 29.832031 3.8125 C 30.589844 3.390625 31.367188 3.035156 32.144531 2.738281 C 32.796875 2.488281 33.46875 2.300781 34.136719 2.148438 C 33.941406 2.148438 33.757812 2.132812 33.558594 2.132812 C 32.1875 2.132812 30.820312 2.253906 29.480469 2.472656 C 29.417969 2.550781 29.371094 2.628906 29.355469 2.707031 C 29.296875 2.859375 29.339844 3.046875 29.433594 3.253906 Z M 29.433594 3.253906 "/>
<path style=" stroke:none;fill-rule:nonzero;fill:url(#linear16);" d="M 14.886719 18.820312 C 15.769531 18.820312 16.710938 18.851562 17.734375 18.933594 C 18.160156 17.828125 18.648438 16.722656 19.152344 15.695312 C 18.785156 15.480469 18.449219 15.273438 18.144531 15.089844 C 17.441406 14.640625 16.53125 14 15.691406 13.191406 C 15.371094 12.878906 14.976562 12.460938 14.65625 11.914062 C 14.535156 11.699219 14.445312 11.496094 14.367188 11.292969 C 12.371094 13.71875 10.835938 16.503906 9.8125 19.554688 C 10.40625 19.304688 10.988281 19.179688 11.445312 19.085938 C 12.722656 18.867188 13.957031 18.839844 14.886719 18.820312 Z M 14.886719 18.820312 "/>
<path style=" stroke:none;fill-rule:nonzero;fill:url(#linear17);" d="M 16.835938 21.558594 C 17.003906 21 17.203125 20.425781 17.398438 19.867188 C 16.652344 19.832031 15.90625 19.800781 15.191406 19.800781 C 15.082031 19.800781 14.992188 19.800781 14.886719 19.800781 C 13.574219 19.820312 12.539062 19.910156 11.640625 20.066406 C 11.03125 20.175781 10.542969 20.332031 10.148438 20.5 C 9.78125 20.671875 9.492188 20.890625 9.355469 21.125 C 9.339844 21.171875 9.324219 21.234375 9.308594 21.28125 C 9.296875 21.359375 9.265625 21.433594 9.25 21.527344 C 9.25 21.527344 9.25 21.546875 9.25 21.546875 L 16.835938 21.546875 Z M 16.835938 21.558594 "/>
<path style=" stroke:none;fill-rule:nonzero;fill:url(#linear18);" d="M 36.121094 2.503906 C 34.855469 2.613281 33.558594 2.925781 32.28125 3.4375 C 31.65625 3.6875 31.019531 3.980469 30.410156 4.339844 C 30.542969 4.449219 30.695312 4.558594 30.847656 4.679688 C 31.519531 5.164062 32.296875 5.613281 33.226562 6.050781 C 33.5 6.175781 33.789062 6.316406 34.125 6.472656 C 34.398438 6.097656 34.660156 5.753906 34.902344 5.472656 C 35.769531 4.433594 36.578125 3.671875 37.367188 3.125 C 37.691406 2.90625 38.023438 2.738281 38.34375 2.613281 C 38.117188 2.566406 37.886719 2.519531 37.660156 2.488281 C 37.125 2.457031 36.605469 2.457031 36.121094 2.503906 Z M 36.121094 2.503906 "/>
<path style=" stroke:none;fill-rule:nonzero;fill:url(#linear19);" d="M 38.753906 3.046875 C 38.359375 3.171875 37.933594 3.375 37.492188 3.6875 C 36.746094 4.214844 36 4.960938 35.207031 5.972656 C 35.039062 6.191406 34.855469 6.441406 34.660156 6.707031 C 35.800781 7.1875 37.050781 7.621094 38.34375 7.996094 C 40.019531 8.480469 41.558594 8.804688 43.019531 8.992188 C 42.972656 8.601562 42.914062 8.261719 42.867188 7.917969 C 42.640625 6.640625 42.335938 5.613281 41.910156 4.792969 C 41.585938 4.152344 41.054688 3.375 40.246094 3.066406 C 40.140625 3.035156 40.035156 3 39.929688 2.972656 C 39.914062 2.972656 39.882812 2.953125 39.867188 2.953125 C 39.515625 2.90625 39.136719 2.925781 38.753906 3.046875 Z M 38.753906 3.046875 "/>
<path style=" stroke:none;fill-rule:nonzero;fill:url(#linear20);" d="M 15.585938 11.292969 C 15.769531 11.621094 16.058594 11.960938 16.4375 12.351562 C 17.015625 12.925781 17.746094 13.488281 18.707031 14.125 C 19.011719 14.328125 19.332031 14.511719 19.683594 14.730469 C 19.683594 14.714844 19.699219 14.714844 19.699219 14.699219 C 20.917969 12.445312 22.351562 10.390625 23.964844 8.585938 C 22.578125 8.507812 21.34375 8.492188 20.15625 8.554688 C 19.011719 8.617188 18.113281 8.742188 17.324219 8.960938 C 16.820312 9.101562 16.40625 9.253906 16.089844 9.441406 C 15.84375 9.675781 15.617188 9.925781 15.386719 10.171875 C 15.371094 10.1875 15.371094 10.21875 15.371094 10.253906 C 15.265625 10.53125 15.359375 10.886719 15.585938 11.292969 Z M 15.585938 11.292969 "/>
<path style=" stroke:none;fill-rule:nonzero;fill:url(#linear21);" d="M 39.46875 34.59375 L 38.738281 34.59375 C 38.96875 34.640625 39.199219 34.6875 39.410156 34.734375 C 39.441406 34.707031 39.457031 34.640625 39.46875 34.59375 Z M 39.46875 34.59375 "/>
<path style=" stroke:none;fill-rule:nonzero;fill:url(#linear22);" d="M 24.738281 7.730469 C 24.769531 7.699219 24.804688 7.667969 24.847656 7.621094 C 24.890625 7.558594 24.957031 7.511719 25 7.464844 C 26.355469 6.128906 27.789062 4.992188 29.296875 4.09375 C 29.15625 3.921875 29.050781 3.765625 28.960938 3.59375 C 28.882812 3.4375 28.839844 3.296875 28.808594 3.140625 C 28.777344 2.953125 28.777344 2.769531 28.824219 2.597656 C 26.097656 3.140625 23.429688 4.167969 20.949219 5.648438 C 19.867188 6.300781 18.828125 7.03125 17.855469 7.808594 C 18.511719 7.683594 19.226562 7.621094 20.082031 7.574219 C 21.496094 7.527344 22.972656 7.574219 24.738281 7.730469 Z M 24.738281 7.730469 "/>
<path style=" stroke:none;fill-rule:nonzero;fill:url(#linear23);" d="M 43.265625 7.824219 C 43.324219 8.179688 43.371094 8.570312 43.417969 9.039062 L 43.449219 9.039062 C 43.539062 9.054688 43.628906 9.066406 43.734375 9.066406 C 44.847656 9.179688 45.703125 9.191406 46.492188 9.132812 C 46.996094 9.085938 47.410156 9.019531 47.773438 8.914062 C 47.363281 8.261719 46.9375 7.652344 46.460938 7.109375 C 45.578125 6.035156 44.574219 5.132812 43.507812 4.417969 C 43.21875 4.230469 42.929688 4.058594 42.609375 3.875 C 42.320312 3.746094 42.015625 3.640625 41.710938 3.53125 C 41.9375 3.828125 42.136719 4.152344 42.320312 4.527344 C 42.746094 5.414062 43.050781 6.488281 43.265625 7.824219 Z M 43.265625 7.824219 "/>
<path style=" stroke:none;fill-rule:nonzero;fill:url(#linear24);" d="M 39.503906 35.203125 C 39.351562 35.652344 39.199219 36.121094 39.03125 36.617188 C 40.386719 37.148438 41.617188 37.675781 42.808594 38.21875 C 44.390625 38.953125 45.761719 39.667969 47.011719 40.398438 C 47.683594 39.121094 48.292969 37.769531 48.808594 36.386719 C 47.621094 36.308594 46.375 36.199219 45.109375 36.042969 C 43.308594 35.839844 41.421875 35.546875 39.503906 35.203125 Z M 39.503906 35.203125 "/>
<path style=" stroke:none;fill-rule:nonzero;fill:url(#linear25);" d="M 47.117188 40.726562 L 47.070312 40.800781 C 45.746094 43.292969 44.207031 45.5 42.472656 47.367188 C 43.828125 47.460938 45.03125 47.492188 46.175781 47.445312 C 47.363281 47.382812 48.261719 47.257812 49.082031 47.054688 C 49.644531 46.898438 50.089844 46.726562 50.453125 46.527344 C 50.804688 46.324219 51.246094 45.964844 51.398438 45.4375 C 51.535156 44.90625 51.324219 44.367188 51.109375 44.019531 C 50.898438 43.648438 50.59375 43.273438 50.179688 42.871094 C 49.570312 42.28125 48.824219 41.707031 47.835938 41.066406 C 47.621094 40.925781 47.421875 40.800781 47.164062 40.660156 C 47.164062 40.660156 47.148438 40.691406 47.117188 40.726562 Z M 47.117188 40.726562 "/>
<path style=" stroke:none;fill-rule:nonzero;fill:url(#linear26);" d="M 38.726562 36.804688 C 36.457031 35.996094 34.078125 35.28125 31.429688 34.613281 C 31.398438 34.613281 31.367188 34.59375 31.351562 34.59375 L 24.847656 34.59375 C 24.511719 36.757812 24.300781 38.734375 24.191406 40.613281 C 24.132812 41.566406 24.117188 42.433594 24.101562 43.261719 C 25.640625 43.789062 27.210938 44.300781 28.808594 44.753906 C 30.757812 45.3125 32.675781 45.792969 34.519531 46.183594 C 34.960938 45.40625 35.390625 44.613281 35.769531 43.835938 C 36.835938 41.6875 37.824219 39.324219 38.726562 36.804688 Z M 38.726562 36.804688 "/>
<path style=" stroke:none;fill-rule:nonzero;fill:url(#linear27);" d="M 39.640625 34.796875 C 41.527344 35.1875 43.296875 35.5 45.015625 35.746094 C 46.492188 35.949219 47.726562 36.074219 48.902344 36.167969 C 49.097656 35.652344 49.265625 35.125 49.449219 34.613281 L 39.699219 34.613281 C 39.683594 34.660156 39.65625 34.71875 39.640625 34.796875 Z M 39.640625 34.796875 "/>
<path style=" stroke:none;fill-rule:nonzero;fill:url(#linear28);" d="M 46.9375 40.554688 L 46.964844 40.492188 C 45.730469 39.761719 44.34375 39.074219 42.609375 38.3125 C 41.480469 37.832031 40.277344 37.367188 38.9375 36.882812 L 38.925781 36.945312 C 38.90625 36.992188 38.890625 37.039062 38.878906 37.066406 C 37.964844 39.652344 37.035156 41.90625 36.046875 43.960938 C 35.648438 44.769531 35.25 45.53125 34.855469 46.246094 C 36.789062 46.652344 38.574219 46.945312 40.324219 47.164062 C 40.886719 47.226562 41.464844 47.289062 42.109375 47.335938 C 43.933594 45.421875 45.535156 43.179688 46.859375 40.707031 C 46.875 40.660156 46.90625 40.613281 46.9375 40.554688 Z M 46.9375 40.554688 "/>
<path style=" stroke:none;fill-rule:nonzero;fill:url(#linear29);" d="M 48.777344 14.527344 C 47.132812 13.828125 45.441406 13.191406 43.582031 12.566406 C 43.582031 13.347656 43.554688 14.171875 43.507812 15.105469 C 43.402344 17.113281 43.15625 19.242188 42.792969 21.558594 L 51.308594 21.558594 C 51.214844 19.382812 50.925781 17.28125 50.40625 15.273438 C 49.90625 15.027344 49.359375 14.777344 48.777344 14.527344 Z M 48.777344 14.527344 "/>
<path style=" stroke:none;fill-rule:nonzero;fill:url(#linear30);" d="M 56.394531 19.070312 C 55.773438 18.464844 55.054688 17.90625 54.050781 17.253906 C 53.074219 16.628906 52.007812 16.039062 50.789062 15.445312 C 51.246094 17.375 51.507812 19.429688 51.582031 21.558594 L 57.644531 21.558594 C 57.734375 21.046875 57.539062 20.546875 57.339844 20.222656 C 57.113281 19.847656 56.808594 19.472656 56.394531 19.070312 Z M 56.394531 19.070312 "/>
<path style=" stroke:none;fill-rule:nonzero;fill:url(#linear31);" d="M 26.097656 7.871094 C 28.140625 8.121094 30.210938 8.480469 32.464844 8.972656 L 32.492188 8.929688 C 32.601562 8.757812 32.710938 8.570312 32.816406 8.398438 C 33.132812 7.886719 33.453125 7.386719 33.773438 6.921875 C 33.484375 6.796875 33.242188 6.707031 33.027344 6.59375 C 32.007812 6.113281 31.230469 5.691406 30.542969 5.210938 C 30.285156 5.027344 30.042969 4.839844 29.832031 4.652344 C 28.445312 5.492188 27.101562 6.566406 25.804688 7.839844 C 25.851562 7.839844 25.898438 7.855469 25.945312 7.855469 Z M 26.097656 7.871094 "/>
<path style=" stroke:none;fill-rule:nonzero;fill:url(#linear32);" d="M 28.0625 18.667969 C 28.960938 16.160156 29.949219 13.796875 31.03125 11.632812 C 31.367188 10.964844 31.71875 10.28125 32.097656 9.613281 C 29.996094 9.226562 27.921875 8.929688 25.976562 8.742188 C 25.699219 8.710938 25.414062 8.695312 25.042969 8.664062 C 23.324219 10.515625 21.785156 12.726562 20.472656 15.199219 C 21.496094 15.773438 22.609375 16.332031 23.875 16.90625 C 25.195312 17.515625 26.613281 18.105469 28.0625 18.667969 Z M 28.0625 18.667969 "/>
<path style=" stroke:none;fill-rule:nonzero;fill:url(#linear33);" d="M 27.46875 20.40625 C 27.574219 20.113281 27.664062 19.800781 27.769531 19.507812 C 26.277344 18.992188 24.863281 18.433594 23.523438 17.875 C 22.183594 17.28125 21.023438 16.722656 19.972656 16.160156 C 19.515625 17.078125 19.105469 18.046875 18.707031 19.027344 C 19.589844 19.101562 20.550781 19.210938 21.632812 19.367188 C 23.523438 19.632812 25.425781 19.972656 27.46875 20.40625 Z M 27.46875 20.40625 "/>
<path style=" stroke:none;fill-rule:nonzero;fill:url(#linear34);" d="M 37.796875 10.328125 C 39.667969 10.875 41.511719 11.464844 43.25 12.085938 C 43.25 11.867188 43.234375 11.652344 43.234375 11.433594 C 43.203125 10.671875 43.144531 9.925781 43.066406 9.238281 C 41.527344 9.085938 39.972656 8.804688 38.296875 8.398438 C 36.851562 8.042969 35.570312 7.640625 34.355469 7.15625 C 33.941406 7.761719 33.53125 8.433594 33.121094 9.132812 C 34.640625 9.472656 36.210938 9.878906 37.796875 10.328125 Z M 37.796875 10.328125 "/>
<path style=" stroke:none;fill-rule:nonzero;fill:url(#linear35);" d="M 16.863281 40.304688 C 17.15625 40.445312 17.441406 40.585938 17.78125 40.738281 C 19.578125 41.566406 21.480469 42.339844 23.460938 43.058594 C 23.460938 42.265625 23.460938 41.472656 23.503906 40.707031 C 23.597656 38.746094 23.796875 36.710938 24.101562 34.613281 L 16.074219 34.613281 C 16.167969 36.585938 16.4375 38.5 16.863281 40.304688 Z M 16.863281 40.304688 "/>
<path style=" stroke:none;fill-rule:nonzero;fill:url(#linear36);" d="M 27.238281 21.109375 C 25.230469 20.734375 23.351562 20.453125 21.496094 20.238281 C 20.429688 20.113281 19.378906 20.003906 18.375 19.941406 C 18.175781 20.488281 17.992188 21.03125 17.824219 21.574219 L 27.085938 21.574219 C 27.148438 21.40625 27.191406 21.246094 27.238281 21.109375 Z M 27.238281 21.109375 "/>
<path style=" stroke:none;fill-rule:nonzero;fill:rgb(100%,100%,100%);fill-opacity:1;" d="M 45.304688 5.132812 C 45.398438 5.179688 45.472656 5.226562 45.566406 5.273438 C 45.472656 5.226562 45.382812 5.179688 45.304688 5.132812 Z M 45.304688 5.132812 "/>
<path style=" stroke:none;fill-rule:nonzero;fill:rgb(100%,92.156863%,53.333336%);fill-opacity:1;" d="M 49.128906 7.699219 C 49.144531 7.714844 49.160156 7.714844 49.160156 7.730469 C 49.144531 7.714844 49.144531 7.714844 49.128906 7.699219 Z M 49.128906 7.699219 "/>
<path style=" stroke:none;fill-rule:nonzero;fill:rgb(100%,92.156863%,53.333336%);fill-opacity:1;" d="M 45.09375 5.007812 C 45.09375 5.007812 45.09375 5.027344 45.09375 5.007812 C 45.167969 5.054688 45.226562 5.085938 45.304688 5.132812 C 45.226562 5.085938 45.167969 5.054688 45.09375 5.007812 Z M 45.09375 5.007812 "/>
<path style=" stroke:none;fill-rule:nonzero;fill:rgb(100%,92.156863%,53.333336%);fill-opacity:1;" d="M 45.550781 5.273438 C 45.578125 5.289062 45.625 5.320312 45.65625 5.335938 C 45.625 5.320312 45.59375 5.289062 45.550781 5.273438 Z M 45.550781 5.273438 "/>
<path style=" stroke:none;fill-rule:nonzero;fill:rgb(100%,100%,100%);fill-opacity:1;" d="M 59.136719 21.558594 L 57.796875 21.558594 C 57.660156 21.015625 57.507812 20.488281 57.339844 19.941406 C 57.140625 19.679688 56.914062 19.398438 56.625 19.101562 C 56 18.496094 55.269531 17.921875 54.261719 17.253906 C 53.195312 16.566406 52.054688 15.898438 50.726562 15.246094 L 50.699219 15.105469 C 50.652344 14.917969 50.605469 14.746094 50.5625 14.558594 C 49.996094 12.472656 49.21875 10.5625 48.246094 8.914062 C 48.398438 8.851562 48.519531 8.789062 48.625 8.710938 C 48.808594 8.585938 49.035156 8.386719 49.113281 8.074219 C 49.144531 7.964844 49.144531 7.839844 49.128906 7.699219 C 49.066406 7.652344 49.007812 7.605469 48.945312 7.558594 C 48.992188 7.730469 48.992188 7.871094 48.960938 8.011719 C 48.886719 8.292969 48.671875 8.480469 48.503906 8.585938 C 48.398438 8.648438 48.292969 8.710938 48.152344 8.773438 C 47.742188 8.089844 47.300781 7.433594 46.828125 6.859375 C 46.296875 6.191406 45.71875 5.566406 45.09375 5.027344 C 44.285156 4.605469 43.460938 4.214844 42.609375 3.875 C 42.929688 4.046875 43.21875 4.230469 43.507812 4.417969 C 44.574219 5.132812 45.578125 6.035156 46.460938 7.109375 C 46.917969 7.667969 47.363281 8.273438 47.773438 8.914062 C 47.410156 9.019531 46.996094 9.085938 46.492188 9.132812 C 45.703125 9.191406 44.847656 9.179688 43.734375 9.066406 C 43.648438 9.054688 43.554688 9.054688 43.449219 9.039062 L 43.417969 9.039062 C 43.371094 8.570312 43.324219 8.179688 43.265625 7.824219 C 43.050781 6.488281 42.746094 5.414062 42.320312 4.527344 C 42.136719 4.152344 41.9375 3.8125 41.710938 3.53125 C 41.238281 3.359375 40.75 3.207031 40.265625 3.066406 C 41.070312 3.375 41.605469 4.152344 41.925781 4.792969 C 42.335938 5.613281 42.65625 6.640625 42.882812 7.917969 C 42.945312 8.246094 42.992188 8.601562 43.035156 8.992188 C 41.574219 8.804688 40.035156 8.460938 38.359375 7.996094 C 37.0625 7.621094 35.828125 7.1875 34.671875 6.707031 C 34.871094 6.425781 35.054688 6.191406 35.222656 5.972656 C 36.011719 4.960938 36.757812 4.214844 37.507812 3.6875 C 37.949219 3.375 38.375 3.160156 38.773438 3.046875 C 39.152344 2.941406 39.53125 2.90625 39.882812 2.972656 C 39.363281 2.832031 38.859375 2.707031 38.34375 2.613281 C 38.023438 2.738281 37.703125 2.90625 37.367188 3.125 C 36.5625 3.65625 35.753906 4.417969 34.902344 5.472656 C 34.660156 5.773438 34.414062 6.097656 34.125 6.472656 C 33.789062 6.332031 33.5 6.191406 33.226562 6.050781 C 32.296875 5.601562 31.519531 5.148438 30.847656 4.679688 C 30.695312 4.574219 30.542969 4.464844 30.410156 4.339844 C 31.03125 4 31.65625 3.6875 32.28125 3.4375 C 33.558594 2.925781 34.839844 2.613281 36.121094 2.503906 C 36.625 2.457031 37.125 2.457031 37.644531 2.472656 C 36.472656 2.273438 35.296875 2.160156 34.136719 2.132812 C 33.46875 2.273438 32.796875 2.472656 32.144531 2.722656 C 31.367188 3 30.589844 3.375 29.832031 3.792969 C 29.832031 3.792969 29.8125 3.792969 29.8125 3.78125 C 29.644531 3.59375 29.523438 3.40625 29.433594 3.234375 C 29.339844 3.046875 29.296875 2.847656 29.339844 2.707031 C 29.355469 2.628906 29.402344 2.550781 29.460938 2.472656 C 29.25 2.503906 29.035156 2.550781 28.824219 2.597656 C 28.777344 2.769531 28.777344 2.953125 28.808594 3.140625 C 28.839844 3.296875 28.882812 3.4375 28.960938 3.59375 C 29.050781 3.765625 29.15625 3.921875 29.296875 4.09375 C 27.800781 4.980469 26.355469 6.113281 25 7.464844 C 24.957031 7.511719 24.890625 7.574219 24.847656 7.621094 C 24.816406 7.652344 24.785156 7.683594 24.738281 7.730469 C 22.972656 7.574219 21.496094 7.511719 20.09375 7.574219 C 19.226562 7.621094 18.511719 7.699219 17.871094 7.808594 C 17.246094 8.320312 16.652344 8.867188 16.074219 9.425781 C 16.394531 9.238281 16.804688 9.085938 17.308594 8.945312 C 18.097656 8.742188 19 8.617188 20.140625 8.539062 C 21.328125 8.480469 22.578125 8.480469 23.949219 8.570312 C 22.335938 10.375 20.902344 12.429688 19.683594 14.683594 C 19.683594 14.699219 19.667969 14.699219 19.667969 14.714844 C 19.316406 14.5 19 14.3125 18.695312 14.109375 C 17.734375 13.472656 17.015625 12.910156 16.425781 12.335938 C 16.042969 11.945312 15.769531 11.605469 15.570312 11.277344 C 15.34375 10.886719 15.265625 10.515625 15.34375 10.234375 C 15.34375 10.207031 15.359375 10.1875 15.359375 10.160156 C 15.023438 10.515625 14.6875 10.886719 14.367188 11.277344 C 14.429688 11.480469 14.535156 11.679688 14.65625 11.898438 C 14.976562 12.445312 15.371094 12.878906 15.691406 13.175781 C 16.53125 13.984375 17.441406 14.605469 18.144531 15.074219 C 18.449219 15.273438 18.785156 15.480469 19.152344 15.679688 C 18.632812 16.722656 18.160156 17.8125 17.734375 18.914062 C 16.699219 18.839844 15.769531 18.808594 14.886719 18.808594 C 13.957031 18.808594 12.707031 18.851562 11.445312 19.070312 C 10.988281 19.148438 10.40625 19.289062 9.8125 19.539062 C 9.644531 20.066406 9.476562 20.59375 9.339844 21.125 C 9.476562 20.890625 9.765625 20.671875 10.132812 20.5 C 10.527344 20.316406 11.015625 20.175781 11.625 20.066406 C 12.539062 19.894531 13.558594 19.820312 14.867188 19.800781 C 14.976562 19.800781 15.066406 19.800781 15.175781 19.800781 C 15.890625 19.800781 16.621094 19.820312 17.382812 19.867188 C 17.183594 20.425781 17.003906 20.984375 16.820312 21.558594 L 1.402344 21.558594 L 1.402344 34.59375 L 15.175781 34.59375 C 15.265625 36.386719 15.511719 38.125 15.890625 39.808594 C 14.671875 39.183594 13.621094 38.578125 12.644531 37.941406 C 11.683594 37.300781 10.96875 36.742188 10.390625 36.167969 C 10.011719 35.792969 9.734375 35.433594 9.539062 35.109375 C 9.492188 35.03125 9.449219 34.9375 9.417969 34.859375 C 9.675781 35.792969 9.996094 36.726562 10.363281 37.628906 C 10.863281 38.046875 11.410156 38.453125 12.097656 38.886719 C 13.285156 39.652344 14.628906 40.367188 16.210938 41.113281 L 16.226562 41.175781 C 16.242188 41.207031 16.242188 41.238281 16.253906 41.269531 C 17.109375 44.253906 18.464844 46.933594 20.171875 48.984375 C 20.597656 49.5 21.039062 49.964844 21.511719 50.398438 C 22.488281 50.945312 23.492188 51.410156 24.527344 51.816406 C 24.179688 51.613281 23.84375 51.410156 23.523438 51.191406 C 22.46875 50.460938 21.496094 49.546875 20.644531 48.453125 C 19.164062 46.589844 18.007812 44.285156 17.214844 41.578125 C 17.246094 41.59375 17.289062 41.613281 17.324219 41.625 C 17.367188 41.640625 17.414062 41.660156 17.441406 41.6875 C 19.351562 42.5 21.3125 43.226562 23.492188 43.929688 C 23.492188 43.992188 23.492188 44.039062 23.492188 44.101562 C 23.492188 44.207031 23.492188 44.300781 23.503906 44.410156 C 23.570312 45.765625 23.691406 46.933594 23.886719 48.019531 C 24.132812 49.359375 24.464844 50.433594 24.910156 51.300781 C 25.074219 51.628906 25.261719 51.925781 25.457031 52.171875 C 25.882812 52.3125 26.308594 52.453125 26.734375 52.578125 C 26.035156 52.207031 25.578125 51.472656 25.304688 50.882812 C 24.910156 50.058594 24.617188 49.03125 24.421875 47.753906 C 24.253906 46.652344 24.160156 45.46875 24.132812 44.132812 C 25.609375 44.597656 27.164062 45.035156 28.746094 45.4375 C 30.605469 45.90625 32.464844 46.308594 34.261719 46.652344 L 34.214844 46.726562 C 34.15625 46.820312 34.09375 46.933594 34.03125 47.027344 C 33.347656 48.144531 32.691406 49.078125 32.023438 49.902344 C 31.199219 50.898438 30.4375 51.628906 29.679688 52.140625 C 29.234375 52.4375 28.792969 52.640625 28.398438 52.746094 C 28.152344 52.8125 27.910156 52.839844 27.664062 52.839844 C 28.09375 52.953125 28.519531 53.046875 28.945312 53.121094 C 29.265625 52.980469 29.585938 52.8125 29.890625 52.59375 C 30.679688 52.035156 31.476562 51.253906 32.296875 50.214844 C 33.074219 49.234375 33.820312 48.082031 34.597656 46.726562 C 36.578125 47.085938 38.542969 47.351562 40.398438 47.539062 C 40.875 47.585938 41.347656 47.613281 41.816406 47.660156 C 41.804688 47.679688 41.804688 47.679688 41.785156 47.691406 C 41.738281 47.738281 41.695312 47.785156 41.652344 47.832031 C 39.53125 49.949219 37.140625 51.550781 34.734375 52.453125 C 33.441406 52.933594 32.144531 53.214844 30.867188 53.308594 C 30.636719 53.324219 30.410156 53.324219 30.148438 53.324219 C 30.988281 53.433594 31.839844 53.511719 32.675781 53.542969 C 33.441406 53.371094 34.183594 53.152344 34.933594 52.859375 C 37.367188 51.894531 39.714844 50.273438 41.910156 48.035156 C 41.96875 47.972656 42.042969 47.894531 42.109375 47.820312 C 42.152344 47.773438 42.183594 47.738281 42.230469 47.691406 C 43.707031 47.785156 45.046875 47.800781 46.328125 47.726562 C 47.527344 47.660156 48.429688 47.519531 49.265625 47.304688 C 49.585938 47.210938 49.859375 47.117188 50.121094 47.007812 C 50.652344 46.527344 51.171875 46.011719 51.65625 45.484375 C 51.75 44.953125 51.550781 44.441406 51.335938 44.101562 C 51.109375 43.710938 50.820312 43.339844 50.394531 42.917969 C 49.769531 42.3125 49.054688 41.734375 48.03125 41.066406 C 47.789062 40.910156 47.515625 40.738281 47.210938 40.554688 C 47.894531 39.246094 48.503906 37.859375 49.035156 36.433594 C 50.011719 36.480469 50.910156 36.507812 51.792969 36.507812 C 53.152344 36.492188 54.1875 36.414062 55.144531 36.226562 C 55.601562 36.132812 56.199219 36.011719 56.777344 35.746094 C 57.035156 35.621094 57.234375 35.511719 57.398438 35.375 C 57.460938 35.1875 57.507812 34.984375 57.570312 34.796875 C 57.492188 34.90625 57.398438 35.015625 57.292969 35.125 C 57.113281 35.292969 56.882812 35.433594 56.59375 35.558594 C 56.152344 35.761719 55.664062 35.902344 54.992188 36.027344 C 54.050781 36.199219 53.027344 36.273438 51.671875 36.292969 C 50.867188 36.292969 50.042969 36.261719 49.144531 36.199219 C 49.339844 35.667969 49.511719 35.140625 49.675781 34.625 L 65.503906 34.625 L 65.503906 21.59375 L 59.136719 21.59375 Z M 43.460938 9.273438 C 43.570312 9.285156 43.660156 9.285156 43.765625 9.300781 C 44.804688 9.378906 45.71875 9.378906 46.554688 9.300781 C 47.058594 9.253906 47.484375 9.179688 47.847656 9.054688 C 48.855469 10.6875 49.664062 12.554688 50.226562 14.605469 C 50.273438 14.730469 50.300781 14.871094 50.332031 14.996094 L 50.347656 15.058594 C 49.90625 14.839844 49.433594 14.621094 48.976562 14.40625 C 47.285156 13.625 45.457031 12.878906 43.554688 12.195312 C 43.554688 11.167969 43.507812 10.171875 43.417969 9.253906 Z M 43.21875 15.089844 C 43.125 17.160156 42.898438 19.335938 42.5625 21.558594 L 37.167969 21.558594 C 36.4375 21.375 35.695312 21.171875 34.945312 20.953125 C 32.828125 20.347656 30.757812 19.660156 28.777344 18.933594 C 28.777344 18.933594 28.777344 18.914062 28.777344 18.914062 C 28.777344 18.898438 28.792969 18.886719 28.792969 18.867188 C 29.691406 16.300781 30.621094 14.078125 31.582031 12.054688 C 31.992188 11.214844 32.371094 10.46875 32.769531 9.753906 C 34.355469 10.066406 35.96875 10.421875 37.550781 10.828125 C 39.59375 11.355469 41.464844 11.886719 43.25 12.472656 C 43.265625 13.347656 43.25 14.21875 43.21875 15.089844 Z M 28.214844 20.566406 C 28.292969 20.332031 28.367188 20.113281 28.445312 19.878906 L 28.488281 19.738281 C 30.4375 20.394531 32.433594 20.984375 34.613281 21.546875 L 32.328125 21.546875 C 30.925781 21.1875 29.570312 20.859375 28.214844 20.566406 Z M 29.585938 21.558594 L 27.910156 21.558594 C 27.941406 21.453125 27.96875 21.339844 28 21.246094 C 28.519531 21.339844 29.050781 21.453125 29.585938 21.558594 Z M 36.472656 34.59375 C 37.414062 34.796875 38.359375 34.984375 39.289062 35.15625 C 39.136719 35.640625 38.984375 36.089844 38.816406 36.527344 C 37.035156 35.839844 35.160156 35.1875 33.210938 34.59375 Z M 38.738281 34.59375 L 39.46875 34.59375 C 39.457031 34.640625 39.441406 34.6875 39.425781 34.734375 C 39.199219 34.707031 38.96875 34.640625 38.738281 34.59375 Z M 34.355469 7.15625 C 35.554688 7.621094 36.851562 8.027344 38.296875 8.398438 C 39.972656 8.820312 41.527344 9.101562 43.066406 9.238281 C 43.144531 9.925781 43.203125 10.671875 43.234375 11.433594 C 43.25 11.652344 43.25 11.867188 43.25 12.085938 C 41.5 11.464844 39.667969 10.875 37.796875 10.328125 C 36.210938 9.878906 34.640625 9.472656 33.132812 9.132812 C 33.53125 8.433594 33.941406 7.761719 34.355469 7.15625 Z M 29.84375 4.667969 C 30.058594 4.851562 30.285156 5.039062 30.5625 5.226562 C 31.246094 5.707031 32.007812 6.128906 33.042969 6.613281 C 33.273438 6.71875 33.5 6.8125 33.789062 6.9375 C 33.46875 7.40625 33.132812 7.902344 32.828125 8.414062 C 32.722656 8.585938 32.617188 8.773438 32.511719 8.945312 L 32.480469 8.992188 C 30.242188 8.492188 28.152344 8.132812 26.113281 7.886719 L 25.960938 7.871094 C 25.914062 7.871094 25.867188 7.855469 25.824219 7.855469 C 27.101562 6.566406 28.457031 5.507812 29.84375 4.667969 Z M 20.460938 15.199219 C 21.773438 12.726562 23.308594 10.53125 25.03125 8.664062 C 25.414062 8.695312 25.699219 8.726562 25.960938 8.742188 C 27.921875 8.929688 29.980469 9.226562 32.082031 9.613281 C 31.703125 10.28125 31.335938 10.964844 31.019531 11.632812 C 29.949219 13.796875 28.945312 16.160156 28.046875 18.667969 C 26.601562 18.105469 25.183594 17.515625 23.84375 16.90625 C 22.59375 16.332031 21.496094 15.773438 20.460938 15.199219 Z M 19.972656 16.160156 C 21.007812 16.722656 22.183594 17.28125 23.523438 17.875 C 24.863281 18.449219 26.277344 18.992188 27.769531 19.507812 C 27.664062 19.800781 27.574219 20.113281 27.46875 20.40625 C 25.425781 19.972656 23.523438 19.632812 21.648438 19.367188 C 20.566406 19.226562 19.609375 19.101562 18.722656 19.027344 C 19.105469 18.046875 19.515625 17.078125 19.972656 16.160156 Z M 18.375 19.925781 C 19.378906 19.988281 20.429688 20.097656 21.496094 20.222656 C 23.339844 20.441406 25.230469 20.734375 27.238281 21.09375 C 27.191406 21.246094 27.148438 21.40625 27.101562 21.546875 L 17.839844 21.546875 C 17.992188 21.015625 18.175781 20.472656 18.375 19.925781 Z M 23.503906 40.691406 C 23.476562 41.453125 23.460938 42.246094 23.460938 43.042969 C 21.480469 42.328125 19.578125 41.546875 17.78125 40.726562 C 17.441406 40.566406 17.140625 40.429688 16.863281 40.289062 C 16.425781 38.484375 16.167969 36.570312 16.074219 34.59375 L 24.101562 34.59375 C 23.796875 36.695312 23.597656 38.734375 23.503906 40.691406 Z M 34.519531 46.199219 C 32.691406 45.8125 30.773438 45.328125 28.808594 44.769531 C 27.222656 44.320312 25.640625 43.804688 24.101562 43.273438 C 24.101562 42.433594 24.132812 41.566406 24.191406 40.632812 C 24.300781 38.746094 24.511719 36.757812 24.847656 34.613281 L 31.351562 34.613281 C 31.382812 34.613281 31.410156 34.625 31.429688 34.625 C 34.0625 35.292969 36.457031 36.011719 38.726562 36.820312 C 37.824219 39.339844 36.835938 41.707031 35.769531 43.851562 C 35.390625 44.628906 34.960938 45.421875 34.519531 46.199219 Z M 42.089844 47.351562 C 41.453125 47.304688 40.875 47.242188 40.308594 47.179688 C 38.574219 46.960938 36.777344 46.667969 34.839844 46.261719 C 35.238281 45.546875 35.632812 44.769531 36.027344 43.972656 C 37.019531 41.921875 37.949219 39.667969 38.859375 37.085938 C 38.878906 37.039062 38.890625 36.992188 38.90625 36.960938 L 38.925781 36.898438 C 40.265625 37.378906 41.453125 37.847656 42.59375 38.328125 C 44.332031 39.09375 45.71875 39.792969 46.953125 40.507812 L 46.917969 40.566406 C 46.890625 40.613281 46.859375 40.679688 46.84375 40.726562 C 45.519531 43.214844 43.917969 45.4375 42.089844 47.351562 Z M 47.847656 41.035156 C 48.839844 41.671875 49.585938 42.246094 50.195312 42.839844 C 50.605469 43.261719 50.910156 43.617188 51.125 43.992188 C 51.335938 44.347656 51.550781 44.878906 51.414062 45.40625 C 51.277344 45.933594 50.820312 46.292969 50.46875 46.496094 C 50.101562 46.714844 49.664062 46.886719 49.097656 47.027344 C 48.277344 47.242188 47.375 47.351562 46.1875 47.414062 C 45.0625 47.460938 43.859375 47.445312 42.488281 47.335938 C 44.207031 45.453125 45.761719 43.246094 47.089844 40.773438 L 47.132812 40.691406 C 47.148438 40.660156 47.164062 40.632812 47.179688 40.585938 C 47.421875 40.773438 47.636719 40.910156 47.847656 41.035156 Z M 47.011719 40.398438 C 45.761719 39.652344 44.390625 38.933594 42.808594 38.21875 C 41.617188 37.675781 40.386719 37.148438 39.03125 36.617188 C 39.199219 36.121094 39.363281 35.652344 39.503906 35.203125 C 41.421875 35.546875 43.296875 35.839844 45.109375 36.058594 C 46.375 36.214844 47.621094 36.320312 48.808594 36.398438 C 48.292969 37.769531 47.683594 39.121094 47.011719 40.398438 Z M 48.902344 36.152344 C 47.726562 36.074219 46.492188 35.933594 45.015625 35.730469 C 43.296875 35.480469 41.527344 35.171875 39.640625 34.78125 C 39.65625 34.71875 39.683594 34.660156 39.699219 34.59375 L 49.449219 34.59375 C 49.265625 35.125 49.097656 35.640625 48.902344 36.152344 Z M 42.792969 21.558594 C 43.15625 19.242188 43.386719 17.113281 43.507812 15.105469 C 43.554688 14.171875 43.582031 13.347656 43.582031 12.566406 C 45.441406 13.191406 47.132812 13.828125 48.777344 14.527344 C 49.371094 14.792969 49.90625 15.027344 50.421875 15.273438 C 50.925781 17.28125 51.230469 19.382812 51.324219 21.558594 Z M 57.628906 21.558594 L 51.566406 21.558594 C 51.488281 19.429688 51.230469 17.375 50.773438 15.445312 C 51.992188 16.039062 53.058594 16.628906 54.035156 17.253906 C 55.039062 17.90625 55.773438 18.464844 56.378906 19.070312 C 56.808594 19.492188 57.09375 19.847656 57.3125 20.222656 C 57.523438 20.566406 57.722656 21.0625 57.628906 21.558594 Z M 57.628906 21.558594 "/>
<path style=" stroke:none;fill-rule:nonzero;fill:rgb(100%,92.156863%,53.333336%);fill-opacity:1;" d="M 56.273438 14.21875 C 52.742188 7.980469 47.058594 3.53125 40.265625 1.710938 C 33.484375 -0.125 26.386719 0.871094 20.292969 4.511719 C 16.652344 6.6875 13.636719 9.644531 11.410156 13.175781 C 9.917969 15.539062 8.777344 18.167969 8.0625 20.96875 C 8.015625 21.171875 7.957031 21.375 7.910156 21.558594 L 9.25 21.558594 C 9.25 21.558594 9.25 21.546875 9.25 21.546875 C 9.265625 21.464844 9.296875 21.386719 9.308594 21.292969 C 9.324219 21.246094 9.339844 21.1875 9.355469 21.140625 C 9.492188 20.613281 9.660156 20.082031 9.828125 19.554688 C 10.847656 16.503906 12.386719 13.707031 14.382812 11.292969 C 14.703125 10.90625 15.023438 10.53125 15.371094 10.171875 C 15.601562 9.925781 15.828125 9.675781 16.074219 9.441406 C 16.636719 8.882812 17.246094 8.339844 17.871094 7.824219 C 18.828125 7.03125 19.867188 6.300781 20.964844 5.660156 C 23.445312 4.183594 26.097656 3.160156 28.839844 2.613281 C 29.050781 2.566406 29.265625 2.535156 29.480469 2.488281 C 30.832031 2.253906 32.1875 2.148438 33.558594 2.148438 C 33.757812 2.148438 33.941406 2.148438 34.136719 2.160156 C 35.3125 2.191406 36.484375 2.300781 37.644531 2.503906 C 37.871094 2.550781 38.101562 2.582031 38.328125 2.628906 C 38.847656 2.738281 39.363281 2.847656 39.867188 2.988281 C 39.882812 2.988281 39.914062 3 39.929688 3 C 40.035156 3.035156 40.140625 3.066406 40.246094 3.09375 C 40.734375 3.234375 41.222656 3.390625 41.695312 3.5625 C 42 3.671875 42.289062 3.78125 42.59375 3.90625 C 43.449219 4.246094 44.285156 4.621094 45.074219 5.054688 C 45.152344 5.085938 45.214844 5.132812 45.292969 5.179688 C 45.382812 5.226562 45.457031 5.273438 45.550781 5.320312 C 45.578125 5.335938 45.625 5.367188 45.65625 5.382812 C 46.8125 6.035156 47.910156 6.78125 48.929688 7.605469 C 48.992188 7.652344 49.054688 7.699219 49.113281 7.746094 C 49.128906 7.761719 49.144531 7.761719 49.144531 7.777344 C 49.359375 7.949219 49.570312 8.132812 49.785156 8.320312 C 49.832031 8.351562 49.859375 8.398438 49.90625 8.433594 C 50.042969 8.554688 50.195312 8.695312 50.332031 8.820312 C 52.207031 10.5625 53.820312 12.613281 55.128906 14.917969 C 56.046875 16.535156 56.789062 18.246094 57.339844 19.988281 C 57.507812 20.519531 57.660156 21.0625 57.796875 21.605469 L 59.136719 21.605469 C 58.542969 19.007812 57.582031 16.550781 56.273438 14.21875 Z M 56.273438 14.21875 "/>
<path style=" stroke:none;fill-rule:nonzero;fill:rgb(47.843137%,8.627451%,7.450981%);fill-opacity:1;" d="M 55.878906 29.867188 C 55.878906 29.679688 56.011719 29.539062 56.199219 29.539062 C 56.378906 29.539062 56.515625 29.679688 56.515625 29.867188 C 56.515625 30.039062 56.378906 30.191406 56.199219 30.191406 C 56.03125 30.191406 55.878906 30.039062 55.878906 29.867188 Z M 56.484375 29.867188 C 56.484375 29.710938 56.363281 29.570312 56.210938 29.570312 C 56.058594 29.570312 55.9375 29.710938 55.9375 29.867188 C 55.9375 30.019531 56.058594 30.160156 56.210938 30.160156 C 56.363281 30.160156 56.484375 30.019531 56.484375 29.867188 Z M 56.074219 29.695312 L 56.226562 29.695312 C 56.304688 29.695312 56.351562 29.726562 56.351562 29.804688 C 56.351562 29.851562 56.320312 29.898438 56.273438 29.898438 L 56.363281 30.019531 L 56.289062 30.019531 L 56.210938 29.914062 L 56.152344 29.914062 L 56.152344 30.019531 L 56.089844 30.019531 L 56.089844 29.695312 Z M 56.210938 29.851562 C 56.257812 29.851562 56.273438 29.835938 56.273438 29.804688 C 56.273438 29.773438 56.242188 29.757812 56.210938 29.757812 L 56.136719 29.757812 L 56.136719 29.867188 L 56.210938 29.867188 Z M 56.210938 29.851562 "/>
<path style=" stroke:none;fill-rule:nonzero;fill:rgb(46.666667%,5.098039%,16.078432%);fill-opacity:1;" d="M 10.238281 29.492188 L 10.589844 29.492188 L 10.574219 32.699219 L 10.222656 32.699219 Z M 10.238281 29.492188 "/>
<path style=" stroke:none;fill-rule:nonzero;fill:rgb(46.666667%,5.098039%,16.078432%);fill-opacity:1;" d="M 12.21875 29.492188 L 12.554688 29.492188 L 14.535156 32.058594 L 14.535156 29.492188 L 14.886719 29.492188 L 14.886719 32.699219 L 14.609375 32.699219 L 12.585938 30.066406 L 12.554688 32.714844 L 12.21875 32.714844 Z M 12.21875 29.492188 "/>
<path style=" stroke:none;fill-rule:nonzero;fill:rgb(46.666667%,5.098039%,16.078432%);fill-opacity:1;" d="M 17.289062 29.835938 L 16.242188 29.835938 L 16.242188 29.492188 L 18.707031 29.492188 L 18.707031 29.820312 L 17.660156 29.820312 L 17.660156 32.699219 L 17.289062 32.699219 Z M 17.289062 29.835938 "/>
<path style=" stroke:none;fill-rule:nonzero;fill:rgb(46.666667%,5.098039%,16.078432%);fill-opacity:1;" d="M 20.082031 29.492188 L 22.351562 29.492188 L 22.351562 29.820312 L 20.429688 29.820312 L 20.429688 30.90625 L 22.152344 30.90625 L 22.152344 31.234375 L 20.445312 31.234375 L 20.445312 32.355469 L 22.382812 32.355469 L 22.382812 32.679688 L 20.082031 32.679688 Z M 20.082031 29.492188 "/>
<path style=" stroke:none;fill-rule:nonzero;fill:rgb(46.666667%,5.098039%,16.078432%);fill-opacity:1;" d="M 23.78125 29.492188 L 25.042969 29.492188 C 25.519531 29.492188 25.839844 29.601562 26.050781 29.820312 C 26.144531 29.914062 26.277344 30.191406 26.277344 30.410156 C 26.277344 30.941406 25.976562 31.28125 25.425781 31.390625 L 26.386719 32.699219 L 25.945312 32.699219 L 25.03125 31.453125 L 24.132812 31.453125 L 24.132812 32.699219 L 23.78125 32.699219 Z M 25.015625 31.140625 C 25.6875 31.140625 25.914062 30.832031 25.914062 30.441406 C 25.867188 30.132812 25.730469 29.835938 25.03125 29.835938 L 24.132812 29.835938 L 24.132812 31.125 Z M 25.015625 31.140625 "/>
<path style=" stroke:none;fill-rule:nonzero;fill:rgb(46.666667%,5.098039%,16.078432%);fill-opacity:1;" d="M 27.726562 29.492188 L 28.0625 29.492188 L 30.042969 32.074219 L 30.042969 29.492188 L 30.394531 29.492188 L 30.394531 32.699219 L 30.101562 32.699219 L 28.074219 30.066406 L 28.074219 32.699219 L 27.726562 32.699219 Z M 27.726562 29.492188 "/>
<path style=" stroke:none;fill-rule:nonzero;fill:rgb(46.666667%,5.098039%,16.078432%);fill-opacity:1;" d="M 33.132812 29.480469 L 33.46875 29.480469 L 34.902344 32.714844 L 34.519531 32.714844 L 34.15625 31.875 L 32.433594 31.875 L 32.066406 32.714844 L 31.703125 32.714844 Z M 34.019531 31.53125 L 33.300781 29.898438 L 32.585938 31.53125 Z M 34.019531 31.53125 "/>
<path style=" stroke:none;fill-rule:nonzero;fill:rgb(46.666667%,5.098039%,16.078432%);fill-opacity:1;" d="M 36.652344 29.835938 L 35.601562 29.835938 L 35.601562 29.492188 L 38.070312 29.492188 L 38.070312 29.835938 L 37.019531 29.835938 L 37.019531 32.714844 L 36.667969 32.714844 Z M 36.652344 29.835938 "/>
<path style=" stroke:none;fill-rule:nonzero;fill:rgb(46.666667%,5.098039%,16.078432%);fill-opacity:1;" d="M 39.457031 29.492188 L 39.808594 29.492188 L 39.808594 32.699219 L 39.457031 32.699219 Z M 39.457031 29.492188 "/>
<path style=" stroke:none;fill-rule:nonzero;fill:rgb(46.666667%,5.098039%,16.078432%);fill-opacity:1;" d="M 41.300781 31.113281 C 41.300781 30.226562 41.957031 29.445312 42.882812 29.445312 C 43.886719 29.445312 44.511719 30.226562 44.511719 31.09375 C 44.542969 32.058594 43.675781 32.992188 42.503906 32.726562 C 41.847656 32.574219 41.3125 31.933594 41.300781 31.113281 Z M 44.132812 31.113281 C 44.132812 30.300781 43.554688 29.773438 42.898438 29.789062 C 42.121094 29.804688 41.664062 30.410156 41.664062 31.113281 L 41.664062 31.125 C 41.664062 31.886719 42.167969 32.292969 42.5625 32.417969 C 43.417969 32.621094 44.164062 31.921875 44.132812 31.113281 Z M 44.132812 31.113281 "/>
<path style=" stroke:none;fill-rule:nonzero;fill:rgb(46.666667%,5.098039%,16.078432%);fill-opacity:1;" d="M 45.945312 29.492188 L 46.28125 29.492188 L 48.261719 32.058594 L 48.261719 29.492188 L 48.609375 29.492188 L 48.609375 32.699219 L 48.324219 32.699219 L 46.296875 30.066406 L 46.296875 32.699219 L 45.945312 32.699219 Z M 45.945312 29.492188 "/>
<path style=" stroke:none;fill-rule:nonzero;fill:rgb(46.666667%,5.098039%,16.078432%);fill-opacity:1;" d="M 51.355469 29.480469 L 51.6875 29.480469 L 53.121094 32.714844 L 52.742188 32.714844 L 52.359375 31.859375 L 50.652344 31.859375 L 50.273438 32.699219 L 49.90625 32.699219 Z M 52.238281 31.53125 L 51.519531 29.898438 L 50.804688 31.53125 Z M 52.238281 31.53125 "/>
<path style=" stroke:none;fill-rule:nonzero;fill:rgb(46.666667%,5.098039%,16.078432%);fill-opacity:1;" d="M 54.445312 29.492188 L 54.796875 29.492188 L 54.796875 32.371094 L 56.5625 32.371094 L 56.5625 32.699219 L 54.445312 32.699219 Z M 54.445312 29.492188 "/>
<path style=" stroke:none;fill-rule:nonzero;fill:rgb(0%,25.098041%,38.431373%);fill-opacity:1;" d="M 4.90625 24.328125 L 3.386719 24.328125 L 3.386719 23.332031 L 7.542969 23.332031 L 7.542969 24.328125 L 6.019531 24.328125 L 6.019531 28.234375 L 4.90625 28.234375 Z M 4.90625 24.328125 "/>
<path style=" stroke:none;fill-rule:nonzero;fill:rgb(0%,25.098041%,38.431373%);fill-opacity:1;" d="M 7.957031 25.792969 C 7.957031 24.390625 9.082031 23.238281 10.636719 23.238281 C 12.1875 23.238281 13.300781 24.359375 13.300781 25.761719 L 13.300781 25.773438 C 13.300781 27.160156 12.175781 28.3125 10.621094 28.3125 C 9.066406 28.3125 7.957031 27.191406 7.957031 25.792969 Z M 12.144531 25.792969 C 12.144531 24.933594 11.519531 24.234375 10.621094 24.234375 C 9.734375 24.234375 9.109375 24.921875 9.109375 25.761719 L 9.109375 25.773438 C 9.109375 26.613281 9.734375 27.316406 10.636719 27.316406 C 11.53125 27.316406 12.144531 26.632812 12.144531 25.792969 Z M 12.144531 25.792969 "/>
<path style=" stroke:none;fill-rule:nonzero;fill:rgb(0%,25.098041%,38.431373%);fill-opacity:1;" d="M 15.691406 23.300781 L 16.710938 23.300781 L 18.859375 28.234375 L 17.703125 28.234375 L 17.246094 27.128906 L 15.113281 27.128906 L 14.65625 28.234375 L 13.527344 28.234375 Z M 16.851562 26.179688 L 16.179688 24.59375 L 15.511719 26.179688 Z M 16.851562 26.179688 "/>
<path style=" stroke:none;fill-rule:nonzero;fill:rgb(0%,25.098041%,38.431373%);fill-opacity:1;" d="M 19.226562 27.519531 L 19.882812 26.753906 C 20.339844 27.113281 20.8125 27.347656 21.390625 27.347656 C 21.847656 27.347656 22.121094 27.175781 22.121094 26.878906 L 22.121094 26.867188 C 22.121094 26.585938 21.953125 26.445312 21.117188 26.242188 C 20.109375 25.992188 19.457031 25.714844 19.457031 24.746094 L 19.457031 24.734375 C 19.457031 23.847656 20.1875 23.253906 21.222656 23.253906 C 21.953125 23.253906 22.578125 23.472656 23.09375 23.878906 L 22.515625 24.6875 C 22.078125 24.390625 21.632812 24.207031 21.207031 24.207031 C 20.78125 24.207031 20.566406 24.390625 20.566406 24.625 L 20.566406 24.640625 C 20.566406 24.964844 20.78125 25.058594 21.648438 25.277344 C 22.667969 25.542969 23.246094 25.898438 23.246094 26.738281 L 23.246094 26.753906 C 23.246094 27.71875 22.488281 28.28125 21.40625 28.28125 C 20.597656 28.292969 19.820312 28.046875 19.226562 27.519531 Z M 19.226562 27.519531 "/>
<path style=" stroke:none;fill-rule:nonzero;fill:rgb(0%,25.098041%,38.431373%);fill-opacity:1;" d="M 25.230469 24.328125 L 23.703125 24.328125 L 23.703125 23.332031 L 27.863281 23.332031 L 27.863281 24.328125 L 26.339844 24.328125 L 26.339844 28.234375 L 25.230469 28.234375 Z M 25.230469 24.328125 "/>
<path style=" stroke:none;fill-rule:nonzero;fill:rgb(0%,25.098041%,38.431373%);fill-opacity:1;" d="M 28.71875 23.332031 L 29.90625 23.332031 L 31.230469 25.402344 L 32.558594 23.332031 L 33.746094 23.332031 L 33.746094 28.234375 L 32.644531 28.234375 L 32.644531 25.046875 L 31.230469 27.128906 L 31.199219 27.128906 L 29.796875 25.058594 L 29.796875 28.234375 L 28.71875 28.234375 Z M 28.71875 23.332031 "/>
<path style=" stroke:none;fill-rule:nonzero;fill:rgb(0%,25.098041%,38.431373%);fill-opacity:1;" d="M 36.667969 23.300781 L 37.691406 23.300781 L 39.835938 28.234375 L 38.679688 28.234375 L 38.222656 27.128906 L 36.089844 27.128906 L 35.632812 28.234375 L 34.507812 28.234375 Z M 37.824219 26.179688 L 37.15625 24.59375 L 36.484375 26.179688 Z M 37.824219 26.179688 "/>
<path style=" stroke:none;fill-rule:nonzero;fill:rgb(0%,25.098041%,38.431373%);fill-opacity:1;" d="M 40.199219 27.519531 L 40.855469 26.753906 C 41.3125 27.113281 41.785156 27.347656 42.367188 27.347656 C 42.820312 27.347656 43.097656 27.175781 43.097656 26.878906 L 43.097656 26.867188 C 43.097656 26.585938 42.929688 26.445312 42.089844 26.242188 C 41.085938 25.992188 40.429688 25.714844 40.429688 24.746094 L 40.429688 24.734375 C 40.429688 23.847656 41.160156 23.253906 42.195312 23.253906 C 42.929688 23.253906 43.554688 23.472656 44.074219 23.878906 L 43.496094 24.6875 C 43.050781 24.390625 42.609375 24.207031 42.183594 24.207031 C 41.757812 24.207031 41.542969 24.390625 41.542969 24.625 L 41.542969 24.640625 C 41.542969 24.964844 41.757812 25.058594 42.625 25.277344 C 43.648438 25.542969 44.226562 25.898438 44.226562 26.738281 L 44.226562 26.753906 C 44.226562 27.71875 43.460938 28.28125 42.382812 28.28125 C 41.574219 28.292969 40.8125 28.046875 40.199219 27.519531 Z M 40.199219 27.519531 "/>
<path style=" stroke:none;fill-rule:nonzero;fill:rgb(0%,25.098041%,38.431373%);fill-opacity:1;" d="M 46.203125 24.328125 L 44.683594 24.328125 L 44.683594 23.332031 L 48.839844 23.332031 L 48.839844 24.328125 L 47.316406 24.328125 L 47.316406 28.234375 L 46.203125 28.234375 Z M 46.203125 24.328125 "/>
<path style=" stroke:none;fill-rule:nonzero;fill:rgb(0%,25.098041%,38.431373%);fill-opacity:1;" d="M 49.691406 23.332031 L 53.484375 23.332031 L 53.484375 24.296875 L 50.789062 24.296875 L 50.789062 25.292969 L 53.167969 25.292969 L 53.167969 26.257812 L 50.789062 26.257812 L 50.789062 27.285156 L 53.515625 27.285156 L 53.515625 28.246094 L 49.691406 28.246094 Z M 49.691406 23.332031 "/>
<path style=" stroke:none;fill-rule:nonzero;fill:rgb(0%,25.098041%,38.431373%);fill-opacity:1;" d="M 54.507812 23.332031 L 56.808594 23.332031 C 57.445312 23.332031 57.933594 23.503906 58.269531 23.832031 C 58.542969 24.113281 58.695312 24.484375 58.695312 24.953125 L 58.695312 24.964844 C 58.695312 25.761719 58.253906 26.257812 57.613281 26.492188 L 58.847656 28.234375 L 57.550781 28.234375 L 56.472656 26.660156 L 55.601562 26.660156 L 55.601562 28.234375 L 54.492188 28.234375 L 54.492188 23.332031 Z M 56.730469 25.714844 C 57.265625 25.714844 57.582031 25.433594 57.582031 25.027344 L 57.582031 25.011719 C 57.582031 24.546875 57.246094 24.3125 56.714844 24.3125 L 55.621094 24.3125 L 55.621094 25.714844 Z M 56.730469 25.714844 "/>
<path style=" stroke:none;fill-rule:nonzero;fill:rgb(0%,25.098041%,38.431373%);fill-opacity:1;" d="M 59.351562 27.519531 L 60.003906 26.753906 C 60.460938 27.113281 60.933594 27.347656 61.511719 27.347656 C 61.96875 27.347656 62.246094 27.175781 62.246094 26.878906 L 62.246094 26.867188 C 62.246094 26.585938 62.078125 26.445312 61.238281 26.242188 C 60.234375 25.992188 59.578125 25.714844 59.578125 24.746094 L 59.578125 24.734375 C 59.578125 23.847656 60.308594 23.253906 61.347656 23.253906 C 62.078125 23.253906 62.699219 23.472656 63.222656 23.878906 L 62.640625 24.6875 C 62.199219 24.390625 61.757812 24.207031 61.332031 24.207031 C 60.902344 24.207031 60.691406 24.390625 60.691406 24.625 L 60.691406 24.640625 C 60.691406 24.964844 60.902344 25.058594 61.769531 25.277344 C 62.792969 25.542969 63.375 25.898438 63.375 26.738281 L 63.375 26.753906 C 63.375 27.71875 62.609375 28.28125 61.53125 28.28125 C 60.722656 28.292969 59.960938 28.046875 59.351562 27.519531 Z M 59.351562 27.519531 "/>
</g>
</svg>
